<?xml version="1.0" encoding="utf-8"?>
<!-- Generator: Adobe Illustrator 26.2.1, SVG Export Plug-In . SVG Version: 6.00 Build 0)  -->
<svg version="1.1" id="Capa_1" xmlns="http://www.w3.org/2000/svg" xmlns:xlink="http://www.w3.org/1999/xlink" x="0px" y="0px"
	 viewBox="0 0 786 490" style="enable-background:new 0 0 786 490;" xml:space="preserve">
<style type="text/css">
	.st0{fill:#FF9D00;}
	.st1{fill:#FFC200;}
	.st2{fill:#1D4200;}
	.st3{fill:#FFF7D4;}
</style>
<g>
	<g>
		<path class="st0" d="M438.5,63.4c2-3,2.6-6.8,1.7-10.4c-3.8-13.8-13.6-26.4-26.7-34.6c-14.9-9.3-32.9-11.9-50.5-7.3
			c-12.6,3.3-23.4,10.6-31.4,20.1c-4.3-7.2-10.8-13.2-18.8-16.7c-20.4-8.9-42.1-8.9-62.8-0.1c-15.7,6.7-24.5,20.2-23.9,37
			c0.3,10.1,4,18.8,10.5,25.5c-6.3,0-11.7,4.8-12.4,11.1c-2.1,17.5,8.1,34.5,24.9,41.3c10.8,4.3,21.8,6.5,33,6.5
			c9.1,0,18.3-1.4,27.5-4.3c10-3.2,17.9-8.9,23-16.7c4.4,4.9,9.6,9.1,15.6,12.5c10.4,5.8,21,8.7,31.7,8.7c7.5,0,15.1-1.4,22.6-4.3
			c2.3,2.4,5.5,3.9,9.1,3.9h18c7,0,12.6-5.6,12.6-12.6V72C442.1,68.8,440.8,65.7,438.5,63.4z"/>
		<g>
			<g>
				<path class="st1" d="M411.5,123.2c0-3.4,0-6.4,0-10.2c-18.7,12.4-37.8,14.4-57.3,3.4c-12.4-7-20.2-17.8-23.8-31.5
					c-6.9-26.4,9.6-54.7,35.7-61.5c31.5-8.3,56.2,12.7,61.9,33.1c-8.8,0-17.4,0.1-26.1-0.1c-1.3,0-2.6-1.8-3.8-2.9
					c-9.3-8.7-23.4-9.7-33.6-2.3c-10.4,7.6-14,21.6-8.4,32.9c5.8,11.6,18.8,17.6,31,13.7c4-1.3,7.6-3.9,11.4-5.9
					c-0.2-0.5-0.4-0.9-0.5-1.4c-6.4,0-12.8,0-19.5,0c0-6.3,0-12.1,0-18.2c17,0,33.8,0,51,0c0,16.9,0,33.8,0,51
					C423.7,123.2,417.9,123.2,411.5,123.2z"/>
			</g>
			<g>
				<path class="st1" d="M324.4,51.2c-8.7,0-17.3,0.1-26-0.1c-0.8,0-2-1.4-2.2-2.3c-3.2-11.2-23.3-10.2-28.1-4.2
					c-2.7,3.4-2.7,7.7,0.9,10.2c2.4,1.7,5.4,2.8,8.3,3.5c9.9,2.5,20.2,3.8,29.8,7.1c17.1,5.9,24,21.7,17.4,37.9
					c-3.5,8.6-10.3,13.7-18.8,16.3c-17.5,5.5-35,5-52-1.9c-11.7-4.7-18.5-16.4-17.1-28.1c8.9,0,17.9,0,27.2,0
					c0.5,5.2,2.2,9.8,7.9,11.2c7.7,1.8,15.3,2.4,22.7-1.3c3-1.5,4.2-4.3,3.9-7.6c-0.4-3.8-2.5-6.6-6.1-7.6
					c-6.5-1.8-13.2-3.2-19.7-4.8c-5.2-1.3-10.6-2.2-15.6-4.1c-10.9-4.3-17.8-12-18.2-24.2c-0.4-12,5.6-20.5,16.3-25.1
					c17.5-7.5,35.3-7.6,52.8,0C318.1,30.7,324.6,41,324.4,51.2z"/>
			</g>
		</g>
	</g>
	<g>
		<polygon class="st2" points="159.3,246.7 243.7,154.9 274.8,165.3 325.2,91.2 387.4,140.1 425.9,79.4 445.1,94.2 491,26 
			568,157.9 593.2,136.4 642.1,246.7 		"/>
	</g>
	<g>
		<polygon class="st3" points="586.9,164.2 522.7,218.9 513.3,172.6 496.4,163 507,141.7 471.8,136.4 498.1,98.1 490,58.1 
			429.5,147.9 430.3,104.3 360.6,214.1 351.8,186.7 351.8,186.7 318.4,172.6 338,143.9 329,115.9 263.6,212 248.8,174.6 
			198.1,229.7 615.9,229.7 		"/>
	</g>
	<g>
		<g>
			<path class="st2" d="M683.5,308.3l-1.9-2.4c-1.8-2.2-4.1-4-6.6-5.3l-2.4-1.2c-2.9-1.5-6.2-2.2-9.5-2.1c0,0,0,0,0-0.1l-0.7-1.9
				c-0.6-1.5-1.4-3-2.3-4.4l-2.8-4c-0.4-0.6-0.8-1.1-1.3-1.7l-3.1-3.5c-1-1.1-2.1-2.1-3.2-3c0.9-3.6,0.7-7.5-0.5-11.1l-0.6-1.8
				c-1.1-3.2-3-6.2-5.5-8.5l-1.8-1.6c-0.9-0.8-1.8-1.5-2.8-2.2c-0.4-0.3-0.8-0.7-1.3-1l-1-0.7c-2-1.4-4.2-2.5-6.5-3.1l-2.2-0.6
				c-2.1-0.5-4.2-0.8-6.3-0.6l-2.7,0.1c-2,0.1-3.9,0.5-5.8,1.2l-1.6,0.6c-2.4,0.9-4.7,2.2-6.6,3.9c-1.5,1-2.9,2.3-4.1,3.7
				c-1.2,1-2.3,2.1-3.2,3.4l-2.2,2.9c-0.3,0.3-0.5,0.7-0.7,1.1c-0.1-0.1-0.3-0.1-0.4-0.2c-1.6-1.1-3.5-2-5.4-2.6
				c-0.9-0.4-1.8-0.8-2.7-1l-1.9-0.6c-1.9-0.6-3.9-0.9-5.9-0.9h-4.7c-1.3,0-2.7,0.1-4,0.4l-3.7,0.2c-1.5,0.1-3,0.4-4.5,0.8l-4.4,1.3
				c-0.9,0.3-1.8,0.6-2.7,1l-2.2,1c-1.2,0.5-2.3,1.2-3.3,2c-0.8,0.4-1.5,0.9-2.2,1.4l-0.8,0.6l-0.4,0.2c-2.3,1.1-4.3,2.7-6,4.6
				l-3.2,3.5l-0.7,0.6c-0.3,0.3-0.7,0.6-1,0.9L531,281c-1,1-1.9,2.1-2.7,3.2l-2.1-2.4c-1-1.1-2.1-2.1-3.2-3
				c0.9-3.6,0.7-7.5-0.5-11.1l-0.6-1.8c-1.1-3.2-3-6.2-5.5-8.5l-1.8-1.6c-0.9-0.8-1.8-1.5-2.8-2.2c-0.4-0.3-0.8-0.7-1.3-1l-1-0.7
				c-2-1.4-4.2-2.5-6.5-3.1l-2.2-0.6c-2.1-0.5-4.2-0.8-6.3-0.6l-2.7,0.1c-2,0.1-3.9,0.5-5.8,1.2l-1.6,0.6c-2.4,0.9-4.7,2.2-6.6,3.9
				c-1.5,1-2.9,2.3-4.1,3.7c-1.2,1-2.3,2.1-3.2,3.4l-2.2,2.9c-0.7,1-1.4,2-1.9,3.1l-1,2.1c-0.1,0.2-0.2,0.4-0.3,0.6l-1.4-1.2
				c-0.8-0.7-1.6-1.3-2.5-1.9c-2.3-2-5.1-3.4-8.1-4.1l-4.1-1c-1.2-0.3-2.4-0.5-3.6-0.6h-0.5l-0.6-0.1c-1.6-0.4-3.2-0.6-4.9-0.6h-4.9
				c-0.5,0-1,0-1.4,0.1L429,260c-2.3,0.2-4.6,0.7-6.7,1.7l-3,1.3c0.2-0.6,0.4-1.3,0.5-2l0.4-2.1c0.9-4.2,0.4-8.6-1.4-12.6l-0.7-1.6
				c-1.6-3.4-4-6.3-7.2-8.4l-1.3-0.9c-3.3-2.2-7.1-3.4-11-3.4l-4.6-0.3c-0.6,0-1.2,0-1.8,0l-4.6,0.1c-2.2,0.1-4.4,0.5-6.5,1.3
				l-0.5,0.1c-0.8,0.2-1.6,0.5-2.4,0.8c-2.3,0.8-4.5,2-6.4,3.6l-0.9,0.7c-1.5,1.3-2.9,2.8-4,4.5l-1.9,2.9c-0.9,1.4-1.6,2.8-2.1,4.4
				l-0.1,0.3c-1.1,1.9-1.8,4.1-2.2,6.3l-1,1.7c-0.7,1.2-1.3,2.5-1.7,3.9l-1.3,4.1l-1.2,3.1c-0.7-0.7-1.4-1.4-2.2-2l-3.7-2.8
				c-1.9-1.4-4-2.5-6.2-3.2c-2.5-1.2-5.3-2-8.1-2.1l-3.5-0.1c-0.9,0-1.9,0-2.8,0.1l-4.6,0.4c-1.1,0.1-2.3,0.3-3.4,0.6l-1.6,0.4
				c-0.9,0.2-1.7,0.5-2.5,0.9l-3.8,1.6c-0.4,0.2-0.8,0.3-1.2,0.5l0,0c-1.3-0.6-2.7-1-4.1-1.3l-1.5-0.3c-1.3-0.3-2.6-0.4-4-0.4H300
				c-1.9,0-3.7,0.3-5.5,0.8l-1,0.3c-0.9,0.3-1.8,0.6-2.6,1l-0.3-0.2c-2.2-1.5-4.6-2.6-7.2-3.2l-1.9-0.4c-3.1-0.7-6.3-0.7-9.4,0.1
				l-1.2,0.3c-2.9,0.7-5.6,2.1-7.9,3.9l-1.6,1.3c-1.4-1.2-3-2.3-4.7-3.1l-2.2-1c-1.1-0.5-2.3-0.9-3.5-1.2c-1.1-0.4-2.3-0.7-3.5-0.8
				c0-0.6,0-1.2,0-1.8l-0.1-2.7c-0.1-1-0.2-1.9-0.4-2.8l-0.9-4.4c-0.2-1-0.5-1.9-0.8-2.9l-1.3-3.7c-0.6-1.8-1.5-3.5-2.6-5
				c-0.5-0.8-1.1-1.6-1.7-2.4l-2.9-3.5c-1.6-1.9-3.4-3.4-5.5-4.6c-1.1-0.9-2.3-1.7-3.6-2.3c-0.4-0.3-0.9-0.6-1.3-0.9
				c-1.7-1.5-3.7-2.7-5.8-3.6l-2.2-0.9c-1.8-0.7-3.7-1.2-5.6-1.3l-2.1-0.2l-3.6-0.7c-1.5-0.3-2.9-0.4-4.4-0.4l-5.2,0.1
				c-0.7,0-1.4,0.1-2.1,0.2l-4.4,0.6c-0.9,0.1-1.7,0.3-2.5,0.5l-0.7,0.2l-2.3-2c-2.1-1.9-4.6-3.3-7.3-4.1l-2.4-0.7
				c-2.3-0.7-4.7-1-7.1-0.9l-2.8,0.1c-3.6,0.2-7.1,1.3-10.1,3.4l-2.7,1.8c-3.9,2.6-6.7,6.4-8.1,10.8l-1.2,3.8
				c-0.8,2.5-1.1,5.2-0.8,7.9l0.2,2.3c-0.1,1.6,0,3.2,0.3,4.7l1.1,6.4c0.1,0.6,0.2,1.2,0.4,1.8c-0.1,0.3-0.3,0.7-0.4,1l-0.4,1.2
				c-0.2,0.5-0.4,1-0.5,1.5l-1.2,4.1c-0.1,0.3-0.2,0.6-0.2,1l-1,4.4c-0.2,0.7-0.3,1.4-0.4,2.2l-0.5,3.8c-0.9,0.3-1.8,0.7-2.7,1.1
				h-0.1c-1,0.3-2,0.6-2.9,1c-2.3,0.8-4.4,2-6.3,3.6l-0.1,0.1c-2.8,1-5.3,2.6-7.4,4.7l-4.4,4.2c-0.5,0.5-1.1,1.1-1.6,1.7l-2.9,3.5
				c-0.3,0.4-0.6,0.7-0.9,1.1l-2.7,3.7c-0.4,0.6-0.8,1.2-1.1,1.8l-1.8,3.1c-0.5,0.8-0.9,1.7-1.2,2.5l-0.1,0.3l0,0
				c-1.3,2-2.3,4.1-2.8,6.4l-1,2.9c-0.5,1.4-0.8,2.8-1,4.3l-0.8,4.8c-0.1,0.5-0.2,1-0.2,1.5l-0.4,5c-0.1,1.6-0.1,3.3,0.2,4.9
				l0.6,3.7l0.2,4.2c0.1,2.2,0.6,4.3,1.4,6.3l1,3.8c0.5,1.9,1.2,3.6,2.2,5.3c0.3,0.7,0.6,1.4,1,2.1l2.2,4c1,1.9,2.4,3.6,3.9,5
				l1.5,2.1c0.6,0.8,1.3,1.6,2,2.4l3.2,3.2c0.9,0.9,1.9,1.7,2.9,2.4l2.4,1.7l0.8,0.8c1,0.9,2.1,1.8,3.3,2.5l1.5,0.9
				c0.9,0.5,1.8,1,2.7,1.3c1.1,0.7,2.3,1.2,3.5,1.7c1,0.5,2,1,3,1.3l2.5,0.9c0.5,0.2,1.1,0.4,1.7,0.5l2.1,0.5c2.4,1,5.1,1.6,7.8,1.6
				h4.4l4.4,0.1c0.2,0,0.4,0,0.6,0c0.4,0,0.8,0,1.3,0l4.7-0.3c1.2-0.1,2.4-0.3,3.6-0.6l2.4-0.6c1.2-0.3,2.3-0.7,3.4-1.2l0.6-0.1
				c1.7-0.3,3.4-0.8,5-1.5c0.8-0.2,1.6-0.5,2.3-0.9l4.3-1.9c0.8-0.4,1.6-0.8,2.3-1.2l1.9-1.2c0.5-0.3,1-0.6,1.4-1l6.1-4.5l1.6,0.4
				c2.4,0.7,4.9,0.9,7.4,0.7l4.7-0.4c1.6-0.2,3.2-0.5,4.7-1c2.3-0.5,4.5-1.4,6.4-2.7l1.2-0.8c0.2,0.1,0.4,0.3,0.6,0.4
				c1.9,1.5,4,2.7,6.3,3.5l2.2,0.7c0.3,0.1,0.5,0.2,0.8,0.2l1.3,0.4c-0.3,1.4-0.5,2.8-0.5,4.3v1.6c0,4.9,1.7,9.4,4.8,13
				c1.1,1.6,2.5,3,4,4.1c3.1,2.7,7,4.5,11.2,4.9l2.8,0.3c0.3,0,0.6,0.1,0.9,0.1l4.9,0.3c0.4,0,0.8,0,1.2,0h4.7
				c4.4,0,8.7-1.4,12.2-4.1l3.1-2.4c2.5-1.9,4.5-4.4,5.9-7.2c0.1-0.1,0.2-0.3,0.2-0.4c1.1-1.8,2-3.7,2.5-5.8c0.2-0.5,0.4-1,0.6-1.6
				c0.1-0.3,0.2-0.6,0.3-0.9c0.6-1.1,1.1-2.3,1.5-3.5c0.2-0.4,0.3-0.7,0.5-1.1l0.3-0.7c0.1-0.2,0.2-0.5,0.3-0.7l0.3-0.9l2.2,0.6
				c0.6,0.2,1.2,0.3,1.8,0.4l4.6,0.7c1.5,0.2,3,0.3,4.5,0.2l2-0.1l4.8-0.1c1.5,0,2.9-0.2,4.3-0.6l2.5-0.6c0.8-0.1,1.7-0.3,2.5-0.5
				l7.5-2c1.4-0.4,2.7-0.9,3.9-1.5c1-0.4,2-0.8,2.9-1.4c1.8,1.6,3.8,2.8,6.1,3.7l3.8,1.5c2.3,0.9,4.8,1.3,7.2,1.3h1.7l1,0.2
				c1.3,0.3,2.6,0.4,3.9,0.4c1.1,0,2.3-0.1,3.4-0.3l4.3-0.7c0.9-0.2,1.7-0.4,2.6-0.6l2.4-0.7c1.6-0.5,3.1-1.2,4.5-2
				c0.4-0.2,0.8-0.4,1.2-0.6c1.2-0.5,2.4-1.1,3.5-1.8l2.1-1.3c0.1,0.1,0.2,0.1,0.2,0.2l3.1,2.2c1.9,1.4,4,2.4,6.3,3l2.7,0.7
				c0.9,0.2,1.8,0.4,2.7,0.6l1.4,0.2l3.9,0.9c1.4,0.3,2.9,0.5,4.3,0.5c0.2,0,0.4,0,0.6,0l4.6-0.1c1.4,0,2.9-0.2,4.2-0.6l2.4-0.6
				c0.3-0.1,0.6-0.2,0.9-0.3l4.9-1.5c1-0.3,2-0.7,2.9-1.1l4-1.9c0.9-0.4,1.8-0.9,2.6-1.5l1.7-1.1c0.7-0.3,1.4-0.6,2-1
				c2.7-1.2,5.1-3,7-5.3c0.5-0.1,1.1-0.1,1.6-0.3l0.5-0.1c1.5,0,3-0.2,4.5-0.5c2.3-0.3,4.5-1,6.5-2.1l0.9-0.5l1.6-0.5
				c1.2-0.3,2.4-0.8,3.6-1.4c0.5,1.5,1.1,2.9,1.9,4.2c1.5,3,3.7,5.7,6.6,7.7l0.4,0.4c1.7,1.7,3.6,3,5.7,4l2.2,1
				c1.3,0.6,2.6,1,3.9,1.4l4.4,1c1.5,0.4,3,0.5,4.6,0.5c1.4,0,2.8-0.1,4.1-0.4l1.5-0.3h2.5c2.7,0,5.4-0.6,7.9-1.6l1-0.4
				c0.8-0.4,1.7-0.8,2.4-1.2l4.4-2.7c0.6-0.4,1.2-0.8,1.7-1.2c0.1,0.1,0.3,0.2,0.4,0.3l1.8,1c0.5,0.3,1.1,0.6,1.6,0.9l4.4,2.1
				c1.9,0.9,3.9,1.5,6,1.7l0.5,0.1l1.9,0.6c2,0.6,4.1,1,6.1,1h1.3l4,0.4c0.6,0.1,1.2,0.1,1.8,0.1c1.8,0,3.7-0.3,5.4-0.7l0.7-0.1
				c1.3-0.1,2.7-0.4,3.9-0.7l1.8-0.2c2.3-0.3,4.5-1,6.6-2l1-0.3l1.3-0.2c1.7-0.3,3.3-0.9,4.9-1.6c0.7-0.2,1.3-0.4,1.9-0.7
				c2.1-0.8,4.1-2,5.9-3.4l2.7-1.8c1.5-0.7,3-1.7,4.3-2.8c0.9-0.6,1.8-1.3,2.7-2c0.1,0.2,0.2,0.3,0.3,0.5c1.5,3,3.7,5.7,6.6,7.7
				l0.4,0.4c1.7,1.7,3.6,3,5.7,4l2.2,1c1.3,0.6,2.6,1,3.9,1.4l4.4,1c1.5,0.4,3,0.5,4.6,0.5c1.4,0,2.8-0.1,4.1-0.4l1.5-0.3h2.5
				c2.7,0,5.4-0.6,7.9-1.6l1-0.4c0.8-0.4,1.7-0.8,2.4-1.2l4.4-2.7c0.6-0.4,1.2-0.8,1.8-1.2l3.7-2.8c0.1-0.1,0.3-0.2,0.4-0.3l3.7-2.9
				c1.5-1.2,2.7-2.5,3.8-4l0.2-0.2c1.5-1.4,2.7-2.9,3.7-4.7c0.9-1,1.6-2.1,2.3-3.3l0.7-0.9c0.4-0.5,0.8-1,1.1-1.6l2.5-3.8
				c0.2-0.3,0.4-0.7,0.7-1.1l1.5-1.7c1.2-1.3,2.1-2.8,2.9-4.4c0.6-1.1,1.2-2.2,1.6-3.4c0-0.1,0.1-0.2,0.1-0.3l2.2-4.1
				c1.3-2.5,2.1-5.3,2.3-8.1l0.1-2.2C688.3,317.3,686.7,312.3,683.5,308.3z M156.2,328c0.4-0.7,0.7-1.4,1-2.1c0.5-0.3,1-0.6,1.5-1
				l0,0l1.7,0.1l3,0.4l1.1,0.3l0.2,0.1c0.1,1,0.2,2,0.4,2.9l0.2,1.5l-0.1,0.8c-0.5,1-0.9,2.1-1.2,3.1l-0.5,0.8
				c-0.1,0.1-0.1,0.2-0.2,0.3l-0.3,0.3l-1.5,0.5l-1.3,0.2h-0.9l-1.6-0.4l-0.2-0.2c-0.5-0.8-1-1.6-1.6-2.3l-0.5-2.7V330l0.2-0.9
				L156.2,328z"/>
		</g>
		<g>
			<path class="st3" d="M180.2,274.4h0.7l1.6,1l1.6,1.6l1,0.3l1.3,1.3h0.6l3.5,2.1l4.6,1.6l2.1,0.4l2.4,0.1l5.2,0.1l4.1-0.6l4.6-1.2
				l2.9-1.2l4.1-2.7l1.8-1.5l1.3-1.9l2.4-3.1l1-2.2l1.6-4.1l0.1-1.5l0.7-4.1l-0.1-2.7l-0.9-4.4l-1.3-3.7l-0.7-0.7l-0.1-0.6l-2.9-3.5
				l-1.2-0.4l-1.6-1.5l-2.1-0.9v-0.3h-0.6v-0.4h-0.7l-2.1-2.1l-2.2-0.9l-3.1-0.3l-4.6-0.9l-5.2,0.1l-4.4,0.6l-4.4,1.2l-3.8,1
				l-1.9,1.2l-4.3,2.1l-2.4,0.3l-0.1-0.3l-1.2-1.3l-0.3-2.4l-0.3-4.9l-0.3-0.9l-2.5-2.2l-2.4-0.7l-2.8,0.1l-2.7,1.8L165,235l0.4,4.6
				h0.3l-0.4,0.7l0.4,2.4l0.7,4.4l0.9,2.2l0.4,4.1l-0.9,4.3l-1,1.6l-0.1,1h-0.3l-0.4,1.2l-1,4.5l-1,4.4l-0.6,4.9v5l1,5l0.1,2.2
				l-0.3,0.9l-2.9,1l-4.7,0.1l-1.6,0.6l-5.2,0.7l-2.7,1.3l-1.2,0.1l-0.9,0.6h-0.6l-0.3,0.7l-1,0.3l-0.7,1l-3.7,1.6h-0.6l-1.3,1.3
				l-3.4,3.2l-2.9,3.5l-2.7,3.7l-1.8,3.1l-0.9,2.2l-1.2,1.8l-0.1,0.7l-1.5,4.1l-0.1,1.2l-0.7,4.4l-0.4,5l0.7,4.7l0.3,5.2l0.7,1.2v1
				l1,4l0.4,0.4l0.9,2.2l2.2,4l1.3,1.2l2.8,3.8l3.2,3.2l3.7,2.5l1.9,1.8l1.5,0.9h0.6l0.4,0.4l1.2,0.4l0.4,0.4l2.9,1v0.3l2.5,0.9
				l4.6,1.2l0.3,0.3h4.7l4.7,0.1l4.7-0.3l2.4-0.6l2.1-1l3.5-0.6v-0.3l2.4-0.6l4.3-1.9l1.9-1.2l4-2.9l3.8-2.8l1.3-1.9l0.6-0.3
				l1.3-1.8l0.4-1.2l1.2-1.3l0.3-0.9l0.4-0.3l1.9-4.3l2.2-4v-1l0.7-4.9l0.9-4.7l-0.3-2.2l-0.3-5l-0.4-4.6l-1-2.1l-1.6-1.6l-2.7,0.4
				l-4.4,0.9l-1.6,0.7l-2.2,0.6l-0.9,0.6l-1.2,1.9l-0.1,1.3l0.3,1.3l0.4,4.4l-0.4,5l-1.2,4.1l-0.4,0.3L185,341l-0.3,0.3l-2.4,4
				l-0.3,1l-0.9,0.6v0.6l-2.5,2.2l-3.7,2.8l-2.4,1l-4.3,1.5l-4.3,0.7l-5.2,0.1l-9.1-2.4l-2.5-2.1l-1.8-1.8l-3.1-3.2l-0.3-1l-0.4-0.4
				l-2.7-4l-0.7-2.1l-0.3-2.5l-0.7-4.4L137,327l1.2-4.6l1.6-4.6l0.4-0.4l0.7-2.1l2.8-3.8l3.5-3.2l1.3-0.6l1.9-1.5l2.2-0.9l4.6-1.5
				l2.2-0.1l5,0.4l4.9,0.7l4.1,1.2l4.1,2.1l2.1-0.1l2.7-2.5l1-1.9l0.7-0.7l1.8-4.4l-0.6-2.2l-1.3-2.1l-2.7-3.7l-0.1-1L181,290
				l-0.1-0.6l-1.6-4.3l-0.3-2.4l-0.4-4.4l0.3-2.4L180.2,274.4z M221.6,265.7h0.6l-0.3,1.3l-0.3-0.1l-0.3-0.7L221.6,265.7z
				 M198.3,245.3l1.2-1.3l0.3-0.1l0.7,0.1l0.3-0.4l0.3,0.3l-0.4,0.4l-0.6,1.6l-0.7,0.7h-0.7l-0.3-0.3v-1H198.3z M195.3,246.7
				l0.3,1.6h-0.3l-1-0.3l-0.3-1.8L195.3,246.7z M187.3,248.6l0.4,0.1l0.1,1.2l-0.4,0.4h-0.6l-0.1-0.3l-0.1-0.1L187.3,248.6z
				 M185.2,259.2l1.8-2.9l1.2-0.4l0.7-0.9l1.6-0.6l3.7-1.3v-0.4l3.4-0.6l0.3-0.1l3.1-0.9l2.2,0.4l4.7,1.2l2.2,0.9l3.1,3.5l0.6,1.6
				l0.1,2.4l-0.6,2.2l-2.4,3.7l-1.9,1.6l-2.2,0.9l-2.5,0.3l-5,0.4l-2.8-0.4l-0.9-0.4l-4.1-2.2l-3.7-2.7l-1.6-1.6l-1-2.1L185.2,259.2
				L185.2,259.2z M183.6,248.6l0.6,0.3v0.6l-0.6,0.1V248.6z M128.8,342.4h-0.6v-0.7l0.4-0.3l0.9,0.3L128.8,342.4z M129.4,335.2
				l-1.2,0.1V335l0.3-0.4l1-0.3L129.4,335.2z M183.9,356.7l1.2,0.9l1.6,0.3l-1.8,0.4h-0.3l-0.9-0.6l-0.1-0.6L183.9,356.7z
				 M173.2,365.1v0.6h-0.3l-0.9-0.4l-0.1-0.6L173.2,365.1z M157.9,360.6h0.6v1h-0.6V360.6z M152.8,364h0.4l0.3,0.7l-0.3,0.6
				l-0.4-0.1l-0.3-0.7L152.8,364z M141.9,358.4l0.4,0.1l0.1,0.7l-1-0.3l0.1-0.3L141.9,358.4z M140.9,354h0.6v0.6h-0.6V354z
				 M131.2,331l-0.3-0.1v-1.3l0.7,0.3L131.2,331z M132.2,327.7h-0.7V327h0.7V327.7z M132.2,316.6l0.3-0.1l1.3-0.1l-0.1,1l-0.9,0.6
				l-0.4-0.1L132.2,316.6z M132.5,343v-0.6l0.9,0.1l0.1,0.4h-1V343z M134.3,339.9l-0.6-0.4l-0.4-1.2l1,0.6l0.3,1.2L134.3,339.9z
				 M136.8,352.4l-0.4-0.3l-0.1-1.8l0.7,0.7l0.3,1.2L136.8,352.4z M137.2,315h-0.7l-1.3,0.6l-0.1-0.3V314l0.7-0.9l1.8-0.4L137.2,315
				z M141.9,307.9l-1.2-0.4l-0.1-1.2l0.3-0.1l0.7-0.1l0.9,0.6L141.9,307.9z M150.5,302.3h-0.6v-0.7h0.6V302.3z M153.6,300.6
				l-0.7-0.3l0.1-0.1l0.3-0.4l0.6,0.3L153.6,300.6z M179.5,269.3h-0.6v-1h0.6V269.3z M179.2,253.3l0.1-0.3l0.4-1.5l0.7-0.9l1,0.4
				l0.3,2.2H181l-0.4-0.3l-0.4,0.3l0.3,0.6l1.3,1l-0.1,1.2l-2.2,0.9l-0.1-1l-0.7-1l0.1-1.5L179.2,253.3z M177.7,250.6l0.4-0.7
				l0.7,0.7v0.6l-1.3-0.3L177.7,250.6z M177.6,256.2l0.9,0.3l0.4,1l-0.7,0.7l-0.1-0.1l-0.3-0.1l-0.4-1.2L177.6,256.2z M175.7,263
				v-0.3l1.6-1.8l0.4,0.3l0.9,1.8l-0.4,0.6l-2.7-0.3L175.7,263z M174.8,255.4l0.3,0.3l0.1,1.3h-0.4l-0.4-0.3l-0.1-0.6L174.8,255.4z
				 M174.9,262.6v0.7h-0.7v-0.7H174.9z M174.6,259.6v1.3l-0.4,1l-1.6-0.3l0.1-0.3l0.1-0.6l0.7-0.7L174.6,259.6z M171.8,259.9l0.4-1
				l0.4,0.3l0.1,0.6l-0.3,0.4h-0.7v-0.3H171.8z M171.3,260.7l0.4,0.4l0.1,0.7l-0.3,0.7l-0.3-0.1L171,262l-0.1-1.2L171.3,260.7z
				 M166.7,282l1.6-0.7l0.6,0.3l-0.3,1.3l-2.1-0.6L166.7,282z M167.4,289.1l0.1,0.6h-0.7v-0.3l-0.3-0.4L167.4,289.1z M165.7,293.5
				l1-1.3l1-0.4l0.6,0.3l-0.4,2.2l-2.4-0.6L165.7,293.5z M166.2,297.6h-0.7V297h0.7V297.6z M168.5,297.6h-1.2l-0.4-0.3V297l0.7-0.7
				v-0.6h0.9l0.3,0.3l0.1,1.3L168.5,297.6z M169.9,289.7l-1.3-0.4v-0.6l0.3-0.1v-0.1l0.7,0.1l0.3,0.4V289.7z M169.6,277l-0.4-1
				l0.4-1l0.6,0.1l0.6,0.7l-0.3,1.2L169.6,277L169.6,277z M173.9,290.3l-0.7,0.7l-1.5-0.7l-0.1,1.8l-0.7-0.1l-0.1-0.4l0.6-1.5h0.4
				l2.2-0.3L173.9,290.3L173.9,290.3z M171.5,285l0.3-0.6l0.7,0.1l0.4,0.4l0.1,0.9l-0.3,0.4h-0.3L172,286L171.5,285z M175.2,288.8
				l-0.4,0.4h-0.6l-0.1-0.1l-0.3-0.9l0.1-0.7l0.4-0.4h1.2L175.2,288.8z M176.6,297.9h-0.7l-0.1-0.6l0.4-0.3l0.4,0.3L176.6,297.9
				L176.6,297.9z M176.6,271.6l-3.1,0.9l-2.5,0.1v-0.3l0.6-1.3v-1.3l0.7,0.1v1.2h1.5l1.6-1.2l1.2-0.1V271.6z M173.3,267.1l-0.7,0.4
				l-0.7-0.9h-0.3l-0.3,0.4l-0.7,0.1l0.1-0.4l0.6-0.1l0.1-0.3l0.9-2.5h0.6l0.7,0.7l0.3-0.7l0.6,0.4l0.1,0.6l1.8,1.2l0.4,1.2
				L173.3,267.1z M177.4,302.2H177v-0.3l0.9-0.6l0.1,0.3L177.4,302.2z M178.6,298.4l0.3,0.9h-1.2l-0.4-0.3v-0.3l0.7-0.4L178.6,298.4
				z M178.2,266.4l0.4-1.8l1,0.4l0.3,0.6l-0.3,1.2l-1,0.4L178.2,266.4z"/>
			<polygon class="st3" points="245,327.1 244.7,326.5 244,326.3 244,326.9 244.7,327.7 			"/>
			<path class="st3" d="M668,318.7l-2.4-1.2l-1.9,0.1l-0.9,0.6l-2.7,3.8l-0.3,1.2l-1.8,3.1l-1.3,1.8l-0.1,0.9l-0.7,0.3l-0.3,1
				l-1.6,1.9l-1.2,2.1L650,338l-0.3,0.1l-0.1,0.3l-2.7,3.8l-3.4,3.4l-3.8,2.5l-1.5-0.1l-1.9-1.3l-0.9-1.8l0.3-5.2l1.8-4.4l0.4-2.4
				h0.3l0.3-2.4l2.1-4V326h0.4l0.6-2.4l2.1-4.4l0.1-1l1.2-2.2l0.7-2.1l0.9-4.7l-0.3-0.9l0.3-1.3l-0.3-2.5l-0.7-1.9l-2.8-4l-3.1-3.5
				l-1-0.4l-0.7-0.9l-0.6-0.1l-0.9-0.9l-3.8-3.5l-2.2-1.2l-1.2-1L628,285v-0.6l0.7-1.9l2.1-3.8l1.3-4.4l-0.6-1.8l-1.8-1.6l-2.1-1.2
				l-0.1-0.4l-1-0.7l-2.2-0.6l-2.7,0.1l-1.6,0.6l-1,1.3l-1,0.3l-0.7,1.2l-1.8,1.3l-2.2,2.9l-1,2.1l-1,4.9l0.3,4.6l0.9,0.7l0.7,2.2
				l0.7,0.9l0.4,2.5l-0.1,2.2l-1,2.4l-1.2,1.9l-1.8,3.8l-0.1,0.9l-0.9,0.9l-0.4,1.8h-0.3v0.6l-0.4,0.4l-0.9,1.9l-2.4,3.7l-1.8,3.8
				v0.3h-0.3l-1.2,1.9l-1.9,2.5l-2.8,3.7l-2.9,3.7l-2.8,3.7L589,335l-1,1.5l-1.3,0.6l-1.5,1.9l-1.3,0.4l-1.6,1.8h-0.6l-0.3,0.6h-0.7
				l-3.2,2.5l-4.4,1.9l-4.6,1.8l-2.1,0.4l-4.9,0.1l-5-0.9l-1.5-0.7l-2.2-1.6l-2.7-3.4l-0.3-1h-0.3l-0.1-4.4l0.4-4.6l0.4-1l1.8-1.6
				l0.6-0.1l9.4-0.3h4.6l1-0.4h1.2l2.5-0.6l4.3-1.3v-0.3h0.7l0.6-0.7l0.7-0.1l2.1-1.2l3.8-2.6l3.5-3.4l2.4-3.5l0.1-1l0.7-0.3
				l0.9-2.6l0.7-0.7l1.3-2.9l0.7-4l0.6-1.6l0.3-2.4l-0.4-4.7l-0.4-4.4l-0.7-0.6v-0.7l-0.6-0.3l-0.4-1l-0.9-0.7l-3.2-3.4l-1.8-0.6
				l-1.8-1.3l-2.4-0.6l-0.3-0.4l-1.9-0.6h-4.7l-0.3,0.3h-1.5l-4.6,0.3l-4.4,1.3l-2.2,1l-0.7,0.9l-1.6,0.6l-2.1,1.5l-1.8,0.9
				l-1.2,1.3l-3.1,3.4l-1.8,1.5l-3.2,3.1l-0.4,1.2l-0.7,0.9l-2.2,3.8h-0.3l-0.6,1.8l-0.9,0.6l-0.3,1l-0.7,1.2l-1.8,3.8l-1.8,3.2
				l-0.6,2.1l-0.3,0.3l-0.1,1.8l-0.6,1.9l-2.1,3l-0.3,1.2l-1.8,3.1l-1.3,1.8l0.1,0.2l-0.7,0.3l-0.3,1l-1.6,1.9l-1.2,2.1l-2.8,3.7
				l-0.3,0.1l-0.1,0.3l-2.7,3.8l-3.4,3.4l-3.8,2.5l-1.5-0.1l-1.9-1.3l-0.9-1.8l0.3-5.2l1.8-4.4l0.4-2.4h0.3l0.3-2.4l2.1-4V326h0.4
				l0.6-2.4l2.1-4.4l0.1-1l1.2-2.2l0.7-2.1l0.9-4.7l-0.3-0.9l0.3-1.3l-0.3-2.5l-0.7-1.9l-2.8-4l-3.1-3.5l-1-0.4l-0.7-0.9l-0.6-0.1
				l-0.9-0.9l-3.8-3.5l-2.2-1.2l-1.2-1l-1.3-2.1v-0.6l0.7-1.9l2.1-3.8l1.3-4.4l-0.6-1.8l-1.8-1.6l-2.1-1.2l-0.1-0.4l-1-0.7l-2.2-0.6
				l-2.7,0.1l-1.6,0.6l-1,1.3l-1,0.3l-0.7,1.2l-1.8,1.3l-2.2,2.9l-1,2.1l-1,4.9l0.3,4.6l0.9,0.7l0.7,2.2l0.7,0.9l0.4,2.5l-0.1,2.2
				l-1,2.4l-1.2,1.9l-1.8,3.8l-0.1,0.9l-0.9,0.9l-0.4,1.8h-0.3v0.6l-0.4,0.4l-0.9,1.9L478,314l-1.8,3.8l-0.1,0.4l-0.4,0.2l-1.6,2.4
				l-2.4,4l-1.6,1.6l-2.8,2.7l-3.8,2.8l-4.1,2.1l-2.9,0.9h-1l-1.3-0.9l-0.3-0.9l0.6-2.5l1-2.2l2.1-3.8l0.4-2.1l0.9-2.4l0.6-3.8
				l0.3-0.3l0.7-4.4l0.3-0.3V310l0.4-1l0.3-4.1l-0.1-5l-0.6-4.3l-0.9-3.2l-1.3-3.4l-1-0.9v-0.3l-1.3-1.2l-3.7-3.2l-1.9-1.2l-0.3-0.4
				l-4.1-1l-2.4-0.1l-2.4-0.6h-4.9l-4.1,0.3l-4,1.8l-2.1,0.9l-1.6,0.3l-0.3,0.7h-0.7v0.3h-0.6v0.3h-0.7l-2.1,2.1l-0.6,0.1l-3.2,3.4
				l-3.4,3.1l-0.4,1l-1.5,1.3l-1.3,2.8l-0.9,0.9v0.7l-0.7,0.6l-0.3,0.9l-1.3,1.2l-0.6,1v0.6l-0.9,0.9l-0.3,1l-1.2,2.1l-1.9,4.4
				l-1.3,4.6l-1,2.1l0,0l-1.9,3.3l-0.6,0.3l-0.3,1l-0.7,0.6l-0.3,1.8l-0.7,0.3l-0.3,1l-0.7,0.3L394,329l-0.4,0.4l-2.7,3.8l-1.6,1.6
				l-0.6,1.5l-1.8,1.3l-1.2,1.8l-1,0.7l-2.1,2.8l-0.9,0.3l-1.2,1.3l-0.9,0.4l-2.8,2.2l-2.2,0.9l-2.2,0.3l-0.9-0.4l-1.9-1.8l-0.3-0.9
				v-1.8l0.4-2.5l1-4.3l2.9-7.7l0.4-0.4l1.2-3.5l1.8-4.3l3.5-8.8l1.9-4.4l1.6-3.5l1-4.7l2.2-3.7l0.4-2.2l1.8-4.4l0.4-0.3l0.1-0.7
				l0.9-1.3l0.3-2.4l0.4-0.3l0.4-1l0.1-1.6l0.7-0.7l0.7-2.1l1.8-4.1l0.4-0.4l1.8-4.9l0.6-0.7l0.7-2.9l0.6-0.7l0.6-2.2l0.9-1.9
				l0.1-1.3l0.9-2.2l0.4-2.1l-0.7-1.6l-1.3-0.9h-0.4l-5.2-0.3l-4.6,0.1l-0.4,0.3h-0.3l-1.6,0.4v0.3l-1.2,0.1L386,254l-2,3l-1.2,3.4
				h-0.3l-0.3,2.1l-1.5,3.5l-1.6,2.8l-1.5,4.6l-1.6,4.3l-1.9,4.3l-1.8,4.3l-0.7,2.4l-0.4,0.3l-0.1,0.6l-3.5,8.5l-1.8,4.1l-1.5,4.6
				l-1.5,4l-1.6,4l-1.2,1.9l-0.4,1.9l-1.1,1.5l-0.7,1.8h-0.4v0.7h-0.3l-0.3,0.6h-0.3v0.7h-0.4v0.6h-0.3v0.7h-0.3v0.6h-0.3l-0.1,0.9
				l-1.5,1.2l-2.2,2.5l-0.6,1.2h-0.3v0.6l-2.2,2.7l-3.4,3.2l-3.5,3.4l-3.5,2.8l-2.4,1.2l-4,2.4l-1,0.1l-0.6-0.4l-0.1-0.3l-0.3-1
				l1.2-2.1l1.3-2.7l2.4-3.4l0.1-0.9h0.4l0.4-1.3l2.4-3.8l2.4-4.3l1.6-4.1l1.5-4.3l1.6-4l0.4-1.9l0.3-0.3l0.3-2.4l0.9-4.7l0.6-4.4
				l0.1-5l-0.3-4.3l-0.4-1.3l-1.6-4.4l-0.9-0.7l-1-1.9l-3.7-2.8h-0.6l-2.4-1.2L333,280l-4.6,0.4l-1.6,0.4l-3.8,1.6l-3.5,1.8
				l-1.9,1.8l-1.5,0.6l-1.3,0.1l-2.1-0.4l-0.9-0.6l-0.9-0.1V285h-0.7v-0.3h-0.7l-0.6-0.7l-1.3-0.6h-1l-0.6-0.7l-1.5-0.3h-2.2l-1,0.3
				l-1.3,1.5v0.4l-0.9,1.5l-1.8,4.6l-1.2,1.8l-1.3,4.6l-1.5,3.7l-1.9,4.3l-1.6,4l-1.5,4.1l-0.4,0.3l-0.9,3.1l-1.5,2.9l-0.3,1.3
				l-0.3,0.2l-1,1.6v0.6l-0.7,0.3l-0.3,1l-0.7,0.3l-0.1,1l-1.6,1.9l-2.8,3.7l-3.1,3.5l-3.2,3.4l-3.5,3.7l-1.6,1l-1.8,1.6l-2.1,1.2
				l-1.6,1.5l-2.4,1.2l-2.4,0.3l-2-0.8l-0.3-0.7l-1.3-1.2l-0.9-2.1l-0.1-2.5l0.3-4.6l0.3-0.3V333l0.4-0.3V332l0.7-4.7l0.6-5l0.7-1.9
				l1.2-1.6l0.3-0.9l1.6-1.6l3.4-3.2l2.9-3.5l3.5-3.1l0.1-0.9l2.9-2.7l3.1-3.2l3.4-3.5l3.4-3.4h0.6l0.7-0.9l3.1-3.7l0.6-2.1
				l-0.7-2.1l-1.6-2.1l-2.1-1.5l-1.9-0.4l-1.2,0.3l-3.2,2.6l-0.3,1l-0.4,0.4l-3.5,3.2l-3.2,3.7l-2.9,3.5l-1.8,1.6l-3.5,2.9l-1.2-0.4
				l-0.3-0.1l-0.4-0.4l-0.4-4l-0.4-4.6l-1.6-4.6l-0.7-0.9l-3.4-3.2l-2.2-1l-1.2-0.1l-0.3-0.3H244l-4.6,0.6l-4.4,1v0.3h-0.7l-1.9,2.1
				l-1.2,0.4l-2.5,2.7l-3.2,3.4l-0.1,0.9l-1.8,1.6l-0.3,0.9l-0.9,0.7l-0.3,1l-0.4,0.3l-2.2,3.4l-0.1,0.9l-0.9,0.7l-0.6,1.2l-0.4,0.1
				l-0.1,0.9L217,303l-0.6,1l-0.9,2.2l-1.3,2.4l-0.4,0.3l-0.6,1.2l-2.5,3.8l-1.9,4.7l0.3,1.9l0.7,0.9l2.1,1.6l2.2,0.6l1-0.3l0.9-0.7
				l2.5-3.8l2.2-4.1l1.5-1.9l1.6-4.3l1.5-1.8l2.7-3.4l2.1-4.1l1.8-1.6l0.9-1.5l1-0.6l1.6-1.6l1.8-0.6l2.2,0.3l1,1.2v1.2l0.3,0.6
				l-0.4,1.5l-0.3,4.7l-0.3,4.6l-1,4.6l-0.1,2.4l-0.7,4.7l-0.9,3.2l-0.4,0.7l-2.4,4l-1.8,1.6l-3.4,3.2l-0.1,0.6l-2.1,2.1l-3.7,2.9
				l-2.2,2.8l-1.8,1.6l-0.4,1.2l-0.4,0.3l-3.7,2.9l-3.1,3.4l-3.7,4.1l-1,1.9l0.3,1.3l1,0.9l2.1,0.6l4.7-0.4l0.3-0.3l1.8-0.3l2.5-1.6
				l0.9-1l0.9-0.1l1.3-1.6l3.5-3.2l0.4-1l1.6-1.5v-0.6l3.4-3.1l2.4-0.6l0.7,0.7l0.9,2.2l1,4.4h0.3v0.6l0.7,0.7v0.6h0.3l0.9,2.2
				l1.5,1.8l0.1,0.6l1,0.4l1,1l2.2,0.7l4.6,1.3l4.9-0.7h2.1l2.2-0.9l4.6-1.5l0.4-0.4l0.9-0.1l0.3-0.7l1-0.3l2.1-1.2l0.6-0.9l1.3-0.6
				l3.4-3.2l0.6-0.3l0.5-0.3l-0.2,0.5l-0.6,0.7v0.6h-0.3l-0.1,0.9L271,356l-0.1,1l-1,1.9l-0.4,1.6l-1.9,4.1l-1.5,4.4l-0.4,0.3
				l-0.6,2.4h-0.3v0.6h-0.4v0.7h-0.3v0.6h-0.3v0.7h-0.4l-0.1,0.6l-1.6,4.1l-0.1,1.3l-0.3,0.3l-0.7,2.4h-0.3v1.6l0.6,0.3l0.4,1h0.6
				l0.3,0.7l2.8,0.3l4.9,0.3h4.7l3.1-2.4v-0.6h0.3v-0.7l0.6-0.3v-0.7h0.4V382l0.9-2.1l0.1-1.2l0.4-0.4l0.7-2.4l0.4-0.3l0.6-2.4
				l0.4-0.3l0.3-0.7l1.6-4.6l1.8-4.3l0.4-0.4l0.7-2.4l0.4-0.3l0.7-2.9l1.9-4.6l2.1-4.1l0.4-0.4l0.9-3.2l1.8-4.4l0.6-2.2l0.4-0.4
				l0.3-1.2l1-1.8l1.2-3.4l2.1-4.1l1.3-4.9l0.9-1.3l0.6-1.8l1.8-4.6l1.8-4.3l0.4-0.4l0.1-1.9l0.4-0.9l0.9-0.9l0.4-1.2l1.8-1.3
				l0.3-0.9l0.7-0.9l3.2-3.5l0.9-0.1l0.6-0.7l0.6-0.1l0.7-0.9l1.5-1l0.7-0.1l0.9-0.7h0.6v-0.3l3.5-0.6l1.2,0.3l0.3,0.6h0.7l1.3,1.3
				v0.6h0.3l0.7,4.4l-0.4,3.7l-0.3,0.3l-0.1,1.6l-1.2,3.7l-0.9,3.2l-1.5,3.8l-0.1,1.6l-0.7,0.9l-0.6,2.1l-1.8,4.4h-0.4l-0.1,0.9
				l-0.4,0.4v0.7l-0.7,0.6l-1.3,3.1h-0.3v0.6h-0.3v0.7h-0.4l-0.1,0.9l-0.4,0.4l-2.7,3.7v0.6l-1,1v0.6l-1,0.7l-0.1,0.9l-2.2,1.8
				l-4,2.9l-2.2,0.6l-2.2-0.6l-2.4-1l-2.4,0.7l-1.9,1.8l-0.9,1.9l0.3,1.6l0.7,1l0.7,0.4l3.8,2.6v0.3h0.7v0.3h0.6v0.3h0.7v0.4
				l1.9,0.3l4.6,1.2l4.6,0.7l2.4-0.1l5.2-0.1l2.9-0.7l0.1-0.3h1.5l4.3-1.2l3.2-0.9l0.6-0.7l1.8-0.3V355l0.9-0.1l0.7-0.7l2.2-0.9
				l0.4-0.9l1.6-0.4l0.7-0.9h0.7v-0.3h0.6v-0.3h0.7l3.2-3.2l0.9-0.4l1.6-1.6l0.9-0.4l1.5-1.9h0.1l-0.1,0.3l0.1,4.9l1,1.9l0.6,1.9
				l0.1,1.6l2.2,2.8l1.9,1.2l0.3,0.6l3.8,1.5h4.9l0.3,0.3l1.5,0.3l4.3-0.7l2.4-0.7l0.9-0.7l1-0.3l1-0.7l1.5-0.4l3.7-2.4l3.4-2.9
				l3.2-3.4l3.1-3.5l3.1-3.4v-0.6l0.8-0.4l0.1,0.3l0.6,4.7l1,4.1l0.7,0.6v0.6l0.9,0.9l0.1,0.9l0.4,0.4l3.7,3.5l3.1,2.2l2.7,0.7
				l2.2,0.3l4.7,1l4.6-0.1l2.4-0.6l4.9-1.5l4-1.9l3.7-2.5l1.6-0.6l0.7-0.7h0.7l1.8-2.2l1.9-1.5l1.6-1.8l1.8-1.3l1.2-0.3l4.7,0.1
				l2.2-0.4h2.2v-0.3h1.6l2.8-1.5l3.7-1l0.4-0.9l0.7-0.1l2.7-2.4l2.1-1v-0.4l0.9-0.1l2.4-2.7l2.1-1.6l1.9-2.4l2.1-2.6v-0.4l2.4-3.5
				v-0.7h0.1l0.4-1.2l0.9-0.4l0.3-1l0.7-0.6l0.3-1h0.3v-0.7l0.7-0.6l1.5-3.5l1.9-4l0.7-0.9l1.6-4.1l0.4-0.4l0.4-1.6l2.1-2.5l1.6-0.3
				l1.9,1.2l3.2,3.4l0.7,2.1l-0.1,2.5l-0.4,1.9l-0.3,0.3l-0.4,1.8l-2.1,4.4l-1.5,4.4l-0.3,0.1l-1,2.9l-0.9,0.9l-1.2,4l-1.2,4.6
				l-1,4.6l-0.9,4.6l0.3,4.9l0.3,0.4l1.3,4.9l0.7,0.7l0.1,0.9l1.5,1l1.6,1.6l2.2,1l4.4,1l3.5-0.7h4.6l1-0.4l4.4-2.7l3.7-2.8l3.7-2.9
				l1.5-2.1l1.3-1.2l0.3-1.2l1.8-1.8l0.9-1.6l1.8-2.2l0.4-0.7l0.6,4.7l1.2,4.1l1.9,2.7l0.3,1l0.7,0.3l0.6,1.3l1.2,0.4l0.9,0.9l1.8,1
				l4.4,2.1l2.4,0.3l3.7,1.2h2.2l4.9,0.4l1-0.4l3.4-0.3v-0.3h0.3l4.7-0.6l0.3-0.4l0.6-0.1l4.4-1.3l2.4-0.4l0.3-0.4l2.4-0.6v-0.3h0.7
				l0.7-0.9l0.6-0.1l3.7-2.5l0.9-0.9l1-0.1l0.3-0.4l1.9-1.2l6-6l6.5-6.8v-0.7l1.6-1.6l0.1-1l2.7-3.8l1.5-1.6l0.4-1.2l0.9-0.9l0.6-2
				l0.1-0.1l0.4-1.2l0.9-0.4l0.3-1l0.7-0.6l0.3-1h0.3v-0.7l0.7-0.6l1.5-3.5l1.9-4l0.7-0.9l1.6-4.1l0.4-0.4l0.4-1.6l2.1-2.5l1.6-0.3
				l1.9,1.2l3.2,3.4l0.7,2.1l-0.1,2.5l-0.4,1.9l-0.3,0.3l-0.4,1.8l-2.1,4.4l-1.5,4.4l-0.3,0.1l-1,2.9l-0.9,0.9l-1.2,4l-1.2,4.6
				l-1,4.6l-0.9,4.6l0.3,4.9l0.3,0.4l1.3,4.9l0.7,0.7l0.1,0.9l1.5,1l1.6,1.6l2.2,1l4.4,1l3.5-0.7h4.6l1-0.4l4.4-2.7l3.7-2.8l3.7-2.9
				l1.5-2.1l1.3-1.2l0.3-1.2l1.8-1.8l0.9-1.6l1.8-2.2l2.5-3.8v-0.4l0.9-1.2l2.9-3.4l0.1-1h0.3V330h0.4v-0.7h0.3v-0.6l0.7-1l2.4-4.4
				l0.1-2.2L668,318.7z M642.3,312.3h0.6v0.6h-0.6V312.3z M639.5,306h1l-0.3,0.9h-0.7V306z M637.3,302.9l1,0.4l0.3,1.3l-1.3,0.3
				l-0.1-0.1l-0.1-1.5L637.3,302.9z M636.6,315.4l1.2-1.3l0.1-1.5l1,0.6l-0.1,1.9l-0.6,0.9l-1.6-0.4L636.6,315.4L636.6,315.4z
				 M587,295.6l1.9,0.1l1.2,0.4l-1.2,0.9l-1.2,0.1l-0.1-0.3l-0.6-0.6L587,295.6L587,295.6z M586.1,298.5l0.9,0.3v0.3l-0.4,0.3
				l-0.6-0.3L586.1,298.5z M584,286.1l0.7-0.3l0.6,0.3l-0.3,0.4l-0.6,0.1l-0.4-0.3V286.1z M583.6,300.6h0.7v1.3h-0.7V300.6z
				 M584,305l0.3,0.9H584l-0.6-0.4l-0.1-0.6L584,305z M581.1,291.3l0.3,0.4v0.7h-0.3l-0.6-0.1l-0.1-1.2L581.1,291.3z M577.5,286.3
				l1.2,0.1l-0.4,0.7l-1-0.3L577.5,286.3z M559.6,296.9h0.4l0.3,0.7l-0.3,0.6l-0.4-0.1l-0.3-0.7L559.6,296.9z M555,300.9l0.7-0.9
				l1.2-0.1v1l-0.4-0.1l-1.5,0.4V300.9z M554.7,316.2l1.8-3.7l0.1-1h0.3v-0.6h0.4l0.1-0.7l2.2-4l2.5-4l3.1-3.7h0.6l3.2-2.8l0.9-0.1
				l3.4-1.2l2.5,0.1l1.2,0.6l1.6,1.8l-0.3,3.2l-1.8,4.7l-1.9,4.3l-1.6,2.8l-3.1,3.5l-0.9,0.1l-0.3,0.4l-3.1,1.8l-1.2,0.3l-0.9,0.7
				l-1.8,0.1h-5.4l-0.9-0.4l-1-1.3L554.7,316.2z M515.7,312.3h0.6v0.6h-0.6V312.3z M512.9,306h1l-0.3,0.9h-0.7V306z M510.7,302.9
				l1,0.4l0.3,1.3l-1.3,0.3l-0.1-0.1l-0.1-1.5L510.7,302.9z M510,315.4l1.2-1.3l0.1-1.5l1,0.6l-0.1,1.9l-0.6,0.9l-1.6-0.4L510,315.4
				L510,315.4z M456.3,309.1v1h-0.6v-1H456.3z M453.8,303.5l0.1-0.1l0.9-0.3h1.3v2.1h-0.3l-0.7-0.7l-0.4,0.6l-0.6,0.1l-0.3-0.4
				V303.5z M389.3,268.6l0.7-0.4l1.2,0.6l-0.4,2.7l-0.4,0.3h-0.7l-0.3-0.6l0.3-0.7l-0.7-0.9L389.3,268.6z M384.6,277l0.3-0.9l1,0.3
				l-0.1,0.9l-1.2,0.1L384.6,277L384.6,277z M379.6,287.2l0.4-0.3l1.2-0.1v0.7l-0.6,0.3l-1-0.3V287.2z M375.4,301.7l0.1-0.1l0.3-0.1
				l1.2,0.6l-0.3,0.4v1.3l-1.5-1l-0.1-0.4L375.4,301.7z M375.5,312.5l0.4,0.3v0.6h-2.2l-0.4-0.3v-0.3l0.7-0.4L375.5,312.5z
				 M370.9,307.8l1-1.6v-0.7h1l0.3,1.3l-1,1.2l-1.3,0.1V307.8z M371.7,318.7l0.4,0.4l-0.1,0.3h-0.4l-0.9-0.3L371.7,318.7z
				 M342.5,301h0.3l0.3,0.7l-0.3,0.6l-0.3-0.1l-0.3-0.7L342.5,301z M335.2,322.6l-0.3-1l-0.7-0.9V320l-0.3-0.4l-1.8-0.6v-0.3
				l0.7-0.7v-0.3l0.4,0.3l0.6,1l1.3-0.3l0.3,0.6l0.3,2.4l-0.3,1h-0.2V322.6z M336,324.9l-0.6,0.1l0.1-0.3l0.9-0.4L336,324.9z
				 M337.1,315.3l-0.6-1.3v-0.7l0.4,0.1h0.4l1.3-1.5h0.7l-0.3,0.6l0.7,2.2L337.1,315.3z M337.7,302.6l0.6-1.2l0.4-0.1l0.3,0.3
				l-0.1,1.2l-1,0.6V303L337.7,302.6z M340.3,316l-0.6,0.3l-1.2-0.1l-0.1-0.6l0.1-0.1l1.5-0.1l0.4,0.3L340.3,316z M340.2,306.5
				l-1.5,0.4l-0.6-0.3v-0.3l0.4-0.9l1.9-0.1L340.2,306.5z M339.1,304.2v-0.6l0.6,0.1l0.1,0.9L339.1,304.2z M336.2,289.5v-0.6h0.6
				l0.3,0.4l0.1,1.2l0.3,0.4l1.8-1.6l0.6-0.1l0.6,2.4l-0.4,0.3l-1.2,0.1l-0.4,0.3l0.1,1.3l0.4,0.9l0.6,0.1l0.9-0.4h0.7l-0.1,1.5
				l-1.5,1.3l-0.1,0.6l0.4,2.4l-0.9-0.3l-0.6-1.3h-0.3l-1-2.1h0.7l1.3-1l-0.9-0.9L337,294l0.3-1.3l-0.6-1.2l-0.9-0.4l0.4,1l-0.1,0.3
				l-0.4-0.1l-0.6-0.4L336.2,289.5z M334.4,310.3h0.3l0.4-0.3l0.3,1.3l-1-0.3L334.4,310.3L334.4,310.3z M333.4,294.7l0.4,1.9h-0.4
				l-1.2-0.6l-0.1-0.6l0.4-0.7L333.4,294.7L333.4,294.7z M332.1,289.2l0.7,0.7v0.6h-0.4l-0.4-0.1l-0.1-0.6L332.1,289.2z
				 M331.9,311.6l0.6-0.3l0.3,0.7l-0.7,0.6l-0.4-0.3l-0.1-0.7L331.9,311.6L331.9,311.6z M331.8,322.1l1.6,0.3l-0.1,0.6l-0.4,0.3
				l-1.2-0.1l-0.1-0.7L331.8,322.1z M231.3,336.9l-0.7-0.3l0.1-0.3l0.3-0.4l0.6,0.4L231.3,336.9z M256.4,305.1v0.7l-0.3,0.4
				l-0.9-0.1L255,305l0.9-0.3L256.4,305.1z M254.3,301h0.7v0.6h-0.7V301z M254,311.3v0.3h-0.9L253,311L254,311.3z M252.7,303.9
				l0.9,0.9l0.1,1.2h-1.3v-0.4l-0.1-0.6L252.7,303.9z M252,313.4v-1h0.7v2.9h-1l-1.9,1l0.3,1.3l-0.3,0.1l-0.4,1l-0.6,0.1l-0.1-1.2
				l-2.4-1.5l-2.4,0.1l-0.3-0.6l0.1-0.3l1-0.1l0.7-0.9l0.6-0.3l0,0l-0.7-0.7v-0.6l0.7-1.6l0.6,0.4l-0.3,1.8l1.6,1.5l1.8-2.1l1.6,1
				L252,313.4z M248.4,321v-0.3l0.6-0.4h0.7l-0.3,0.9l-0.6,0.1L248.4,321z M249.3,333l-2.4,0.3l-0.1-0.1l-0.3-0.6l0.4-1.6l1.9,1
				L249.3,333z M247.4,322.6l-0.3,0.4l-0.6,0.1l-0.4-0.3v-0.3l0.7-0.3L247.4,322.6z M244.4,322.9l-0.1,0.6l-0.6,0.1v-0.4l0.4-0.9
				L244.4,322.9z M249.7,305.3l0.4,0.3l0.1,0.7h-0.4l-0.6-0.3L249.7,305.3z M248.3,307.6l0.7,1l1-0.1l0.4,0.3l0.1,0.9l-1.9-0.7
				l-0.1,0.9L248,310v-0.3l-0.3-1l0.3-1h0.3V307.6z M246.1,299.1l0.9-0.7l1,0.3v1l-1.5,0.3l-0.4-0.3V299.1z M243,300.7l0.4-0.3
				l1.2-0.1l0.1-0.6l0.6,0.3v1.3h0.7l-0.4,2.1h-1.3l-0.7-2.2L243,301V300.7z M242.5,312.3l0.1-0.4l0.4,0.4l-0.4,0.6l-0.3-0.3
				L242.5,312.3z M238,335h-0.3l0.1-0.3l0.9,0.1l0.6,1l-0.4,0.1L238,335z M240,343.3h-0.7v-0.6h0.7V343.3z M241.3,337.7l-1.6-0.3
				l0.1-0.3v-0.3l1.2-0.3l0.3,0.4V337.7z M241.3,331.8l-1.9,0.7l-1.3,0.1l-1-1v-0.7h0.4l0.6,1h0.3l1.2-1.2l1-0.4l0.3-2.9l1.5-1v-0.9
				l0.6-0.9l1.3,0.3l2.4-0.3l0.7,1.5v1.3l-1.5,0.3l-1.2,1.3l0.7,1.5l-0.7,1l-1.2,0.1l-0.6-0.3l-0.4,0.3L241.3,331.8z M243.1,334.3
				l-1.2-0.3l0.3-0.6h0.9l0.6,0.3L243.1,334.3z M244.7,338.3H244v-0.6h0.7V338.3z M246.1,336.2v-0.3l-0.3-0.3l0.3-0.6l1,0.1l0.3,1.8
				l-1.8,0.7l-0.9-1.3L246.1,336.2z M246.4,344.9l-0.4,0.4h-0.6l-0.3-1l0.1-0.1l1.2-0.1V344.9z M247.5,343l-0.7-0.3l-0.4-1.8
				l1.3,0.4l0.3,1.6L247.5,343L247.5,343z M248.3,335l-0.4-0.3l-0.1-0.6l0.3-0.4l0.7,0.6v0.7L248.3,335L248.3,335z M248.7,344.6
				v-0.9l1,0.3l-0.1,0.1l0.3,0.4h-1.2V344.6z M250.3,325.3l-0.7,0.3l-0.4-0.3l-0.1-0.7l1.3,0.4v0.3H250.3z M278.8,366.7l-0.7-0.7
				l0.4-1l0.6,0.1l0.4,1.6L278.8,366.7L278.8,366.7z M285.1,350.3h-0.6v-0.7h0.6V350.3z M287.4,336.9h-1.6v-0.4l0.6-1.2h0.4l1.3,1
				L287.4,336.9z M295.1,323.2h-0.3l-0.3-0.4l0.1-1.3l0.4-0.1l0.3,1.5L295.1,323.2z M310.4,298.6l-1.5,0.7l-0.4-1l-1-0.6v-0.4
				l0.3-0.1l0.6-0.1l2.1,0.9v0.6H310.4z M329.4,286.6l-0.9,0.4l0.1-0.3l0.1-0.4h0.6L329.4,286.6L329.4,286.6z M313.2,346.7l-0.7-0.3
				l0.1-0.3l0.4-0.7l0.7,0.6L313.2,346.7z M321.8,335.8l0.7-0.1l-0.3,1.3h-0.3l-0.4-0.7L321.8,335.8z M317.3,346.4l0.1-0.4l0.6,0.4
				l-0.3,0.6l-0.6-0.3L317.3,346.4z M316.7,350.6l-0.6,0.3l-1-0.3l0.1-0.3l0.1-0.7l1.3,0.4v0.6H316.7z M319.4,350l-0.6,0.1l-0.3-0.6
				h-1.2l-0.1-0.6l0.1-0.1l0.9-0.3l1,0.3l0.3,0.4L319.4,350z M320.1,345.3h-0.7l0.4-1.3h0.6v-0.3l-0.6-1.2v-0.6h1l1.6,0.7
				L320.1,345.3z M324.8,352.7l-1.9-1.8l-0.1-0.6l0.7-1V349l-1-2.4l0.3-1l0.4,0.3l0.1,0.6l-0.3,0.4l0.7,0.9l1,0.4l-0.3,0.7
				L324.8,352.7z M328.5,322.4h0.6v0.6h-0.6V322.4z M328.5,333.7l-0.3-0.4l0.3-0.9h0.9v0.6l-0.6,0.7L328.5,333.7L328.5,333.7z
				 M362,349.3h-1.2l-0.1-0.6h0.4l0.7-0.3l0.4,0.3L362,349.3z M361.5,344.6l-1.9-0.1v-0.3l0.1-1.2l0.4-0.1l2.1,1.3L361.5,344.6z
				 M366.1,340.9l-1.2,0.1v-0.3l0.3-0.9l1-0.4l0.4,0.3L366.1,340.9z M408.5,334.4h-0.3l-1.2-0.7l-0.1-1.2l0.7-0.1l1.5,0.7
				L408.5,334.4z M451.2,304.5l0.9,0.1l0.4,0.4v1h-0.4l-1.2-1L451.2,304.5z M450.2,308.8l-0.1,0.3h-0.4l-0.7-1L450.2,308.8z
				 M446.2,320.9l1-0.4l-0.1,0.4l0.7,1.9h-0.3l-0.7-0.1l-0.6-0.7V320.9z M419.8,303.1h0.6v0.7h-0.6V303.1z M414.5,312.6l0.3-1.5
				l1,0.1l0.3,0.4l1.6-0.6l-0.3,1.3l-1.3,0.1l-0.9,0.4h-0.7V312.6z M412.3,324.3l-0.6,0.3l-0.6-0.1l-0.3-0.3l0.1-0.6l0.7-0.9
				l0.1-0.6h0.3l0.4,1L412.3,324.3z M411.9,308.8v-0.7l1.6,0.4v0.3l-0.6,0.3L411.9,308.8z M434.7,338.3l-0.9,0.1v-0.3l-0.3-0.7
				l0.3-0.6l0.9,0.3V338.3z M434.6,333.1v-0.6h1.2l0.1,0.9h-0.3L434.6,333.1z M435.1,329.4l0.3-0.6l0.7,0.3l-0.3,0.6L435.1,329.4z
				 M437.5,344.7h-0.3l-1.2-1l-0.3-1.2l0.1-0.7l1,0.1l0.6,0.9L437.5,344.7L437.5,344.7z M439.1,333.4v-0.9l0.3-0.1l0.4,0.3v0.6
				l-0.4,0.3L439.1,333.4z M440.1,337.8h-0.6v-0.3l0.3-0.7h0.6L440.1,337.8z M442.1,341.9l-0.9-0.9l-0.1-0.3l-0.1-0.4l0.3-0.6h0.3
				l1.3,1.8L442.1,341.9z M443.2,337.2l0.3,1.2l-0.6,0.3l-1.5-0.6l0.3-1.6l-1.2-0.7l-0.1-0.6l0.3-0.1l2.8-1.2l-0.1,0.6l-0.7,0.7
				l-0.1,1.2L443.2,337.2z M442.1,331.2l0.1,0.6h-0.4l-0.4-0.1l-0.1-0.4l0.3-0.4L442.1,331.2z M441.8,324.1v-0.4l0.4-0.9h0.3
				l0.3,0.7l-0.3,0.4L441.8,324.1z M443.4,310.9l-1,4.6l-0.4,0.4l-1.5,3.1l-1.8,1.8l-4.4,1.5l-1.8,1.6l-0.7,0.3v0.6l-0.9,0.7v0.4
				l-1,1.9l-0.7,2.4l0.3,2.4l1.6,4.7l-0.1,1.6l-0.9,1.9l-3.2,3.7l-1.9,1.3l-1,0.3l-1.5,1.2l-2.5,0.6l-2.2-0.3l-1.9-1.2l-1.6-1.9
				l-0.3-1l-0.4-0.4l-0.3-1.9l0.1-2.5l0.1-4.4l1.3-4.6l0.7-4.6l0.9-1.6l1.2-4.6l0.6-0.9l1.6-2.9l0.7-2.2l0.7-0.7l1.5-3.7l0.9-0.9
				l0.3-1.3l0.7-0.7l0.3-1l0.4-0.4l0.1-0.9l0.7-0.3l0.3-1l1.3-1.3v-0.6l1.8-1.5v-0.3l1.5-1.6l3.7-3.2l0.9-0.3l0.9-0.7h1l0.3-0.4
				l2.7,0.4l2.2,1.2l1.5,1.6l0.7,2.4l0.3,4.4l-0.3,2.4l-0.7,4.7L443.4,310.9z M446.2,327.5v0.3l-0.6,0.3l-1-0.3v-0.7L446.2,327.5z
				 M447.8,339.4h-0.3l-0.4-0.1l-0.6-1l0.3-0.4l0.7,0.1l0.6,1L447.8,339.4z M448.8,343.1v-0.7l0.9,0.3l0.1,0.4L448.8,343.1
				L448.8,343.1z M450.2,335.5l-0.3,0.4l-1,0.1v-0.3l0.1-0.7l0.4-0.3h0.7L450.2,335.5L450.2,335.5z M449.9,329l-1,0.4l0.1,0.4
				l-0.4,1.6l0.1,0.6l0.7,0.7v1l-4-0.4v-1.2l-0.9-0.9v-0.6l0.9-0.4h1l1,0.7l0.3-0.3l-0.3-1.6l0.3-0.1l2.4-0.9L449.9,329z
				 M451.2,325.7l-1,0.4l-0.3-1.5l0.6-0.9l-0.3-1l0.7-1l-1.5-1.8l0.9-1l0.1-0.6V318l-0.7-1.6l0.1-0.7l0.9-0.1l0.3,1.8l0.6,0.6l0.3,1
				l-0.7,2.5l1,2.2L451.2,325.7z M452.5,315.1h-0.7v-1l1,0.3L452.5,315.1z M452.8,291.1h-1l0.1-0.6l0.9,0.3V291.1z M497.7,339.4
				l-0.6,0.1l-0.4-0.3V339l0.7-0.3l0.6,0.3L497.7,339.4z M507.6,301.3h0.6l0.4,0.4v0.6h-0.7l-0.6-0.7L507.6,301.3z M508.6,325.3
				h-0.3l-0.7-0.1l-0.6-0.9l0.3-2.4l1,0.4L508.6,325.3z M506.6,318.1l0.7-0.1l0.3,0.3l-0.3,1h-0.4l-0.6-0.7L506.6,318.1z
				 M499.5,347.2l-0.4-0.1l0.3-1.2l0.4,0.3l0.1,1L499.5,347.2L499.5,347.2z M499.9,330.6h-0.6V330h0.6V330.6z M501.3,326l0.7,0.3
				l-0.3,0.6l-0.7-0.3L501.3,326z M502.6,349h-0.4l-0.6-0.1l-0.4-1.5l0.7-0.7h0.7l0.4,1.6L502.6,349z M503.6,334.3L503,334l0.1-0.3
				l0.1-0.4l0.6,0.4L503.6,334.3z M504.2,322.9l-0.3,0.1l-0.6-0.4l0.3-0.3l0.7,0.3L504.2,322.9z M505.7,338l-0.3-0.1l-0.9-1.3
				l0.1-0.9h1l-0.1,0.7l0.7,1.3L505.7,338z M507.3,331.5l-0.7-0.3L506,330h0.7l0.4,0.3l0.4,1L507.3,331.5z M507.6,326.9v-0.3
				l0.7-0.7v-0.3l0.3,0.7l-0.4,0.7L507.6,326.9z M508.3,328.2h0.6v0.7h-0.6V328.2z M544.7,322.8v0.6l-0.7,0.4l-1-0.4l0.1-0.2v-0.5
				l0.1-0.1L544.7,322.8z M539.7,337.8l-0.6,0.3l-0.4-0.3l0.1-0.6l0.9,0.3V337.8z M541,342.5h-0.7v-0.7h0.7V342.5z M541,332.8
				l0.3-0.6l0.4,0.3l0.1,0.6L541,332.8z M546,334.6l-1.9-0.6l-0.1-1.2h0.3l0.9,0.1l0.9-0.4l0.3,0.3L546,334.6z M550.3,313.5
				l-0.7-0.3l0.1-0.3l0.3-0.4l0.6,0.3L550.3,313.5z M547.9,317.6l-0.3-0.1v-0.6l0.3-0.1v-0.3l0.4,0.3L547.9,317.6z M549,310.7
				l-0.3-0.7l0.4-2.4l1.2-0.1l1,0.3l-0.3,0.9l-1.8,2.2L549,310.7z M624.4,339.4l-0.6,0.1l-0.4-0.3V339l0.7-0.3l0.6,0.3L624.4,339.4z
				 M634.2,301.3h0.6l0.4,0.4v0.6h-0.7l-0.6-0.7L634.2,301.3z M635.3,325.3H635l-0.7-0.1l-0.6-0.9l0.3-2.4l1,0.4L635.3,325.3z
				 M633.2,318.1l0.7-0.1l0.3,0.3l-0.3,1h-0.4l-0.6-0.7L633.2,318.1z M626.1,347.2l-0.4-0.1l0.3-1.2l0.4,0.3l0.1,1L626.1,347.2
				L626.1,347.2z M626.6,330.6H626V330h0.6V330.6z M627.9,326l0.7,0.3l-0.3,0.6l-0.7-0.3L627.9,326z M629.2,349h-0.4l-0.6-0.1
				l-0.4-1.5l0.7-0.7h0.7l0.4,1.6L629.2,349z M630.3,334.3l-0.6-0.3l0.1-0.3l0.1-0.4l0.6,0.4L630.3,334.3z M630.8,322.9l-0.3,0.1
				l-0.6-0.4l0.3-0.3l0.7,0.3L630.8,322.9z M632.3,338l-0.3-0.1l-0.9-1.3l0.1-0.9h1l-0.1,0.7l0.7,1.3L632.3,338z M633.9,331.5
				l-0.7-0.3l-0.6-1.2h0.7l0.4,0.3l0.4,1L633.9,331.5z M634.2,326.9v-0.3l0.7-0.7v-0.3l0.3,0.7l-0.4,0.7L634.2,326.9z M635,328.2
				h0.6v0.7H635V328.2z"/>
		</g>
	</g>
	<g>
		<g>
			<path class="st2" d="M498.4,418.8l-0.7-1c-0.8-1.2-1.9-2.3-3.2-3c-0.8-0.6-1.7-1.1-2.6-1.4l-0.5-0.2c-0.9-0.3-1.9-0.5-2.9-0.5
				h-0.3l0.4-0.9c0.1-0.2,0.2-0.3,0.2-0.5l1.8-4.6c0.4-1.1,0.7-2.2,0.7-3.4v-1.1c0-2-0.7-4-1.9-5.6l-0.6-0.8c-1-1.3-2.3-2.3-3.8-2.9
				l-1.3-0.5c-0.6-0.3-1.3-0.4-2-0.5l-1.6-0.3c-1.3-0.2-2.6-0.1-3.9,0.2h-2.4c-1,0-2.1,0.2-3,0.5l-1.2,0.4c-1.2,0.4-2.3,1.1-3.2,2
				l-0.5-0.4c-0.8-0.7-1.8-1.3-2.8-1.6l-0.9-0.3c-0.7-0.2-1.3-0.4-2-0.5l-1.4-0.2c-0.3,0-0.6-0.1-0.8-0.1l-3.5-0.1
				c-0.8,0-1.7,0.1-2.5,0.3l-2.3,0.6c-1.9,0.5-3.6,1.6-4.8,3.1l-1,1.3c0,0,0,0-0.1,0.1c-0.1-0.1-0.3-0.3-0.4-0.4l-0.9-0.8
				c-1.7-1.5-3.8-2.4-6.1-2.4h-0.7c-1.6,0-3.2,0.4-4.6,1.2l-1.7,0.7l-0.1-0.1l-2.1-1.7c-0.9-0.7-1.9-1.3-3-1.6
				c-0.5-0.2-1.1-0.4-1.7-0.5l-1.2-0.3c-0.3-0.1-0.5-0.1-0.8-0.1l-2.7-0.3c-0.8-0.1-1.6-0.1-2.3,0l-1.3,0.2c-0.3,0-0.6,0.1-0.9,0.2
				l-2.5,0.6c-1,0.2-1.9,0.6-2.7,1.1c-0.5,0.3-1,0.6-1.5,0.9c0,0-0.1,0-0.1,0.1c-0.7,0.3-1.4,0.7-2,1.1c-0.3,0.1-0.5,0.3-0.7,0.5
				c-0.1-0.5-0.2-1.1-0.4-1.6l-0.3-1.6c-0.1-0.8-0.4-1.6-0.7-2.4l-0.3-0.6l-0.1-0.5c-0.1-0.5-0.3-1-0.5-1.5l-0.3-0.6l-0.1-0.5
				c-0.2-0.9-0.6-1.6-1.1-2.4c-0.1-0.2-0.2-0.3-0.3-0.5c-0.2-0.4-0.4-0.7-0.7-1.1l-0.4-0.5l-0.3-0.6c-0.4-0.8-1-1.5-1.6-2.1
				l-1.5-1.7l-0.3-0.5c-0.6-1-1.5-1.9-2.5-2.6l0,0c-0.6-0.7-1.3-1.2-2-1.7c-0.6-0.7-1.4-1.3-2.2-1.7c-0.5-0.4-1.1-0.8-1.8-1.1
				l-0.4-0.2c-1-0.7-2.2-1.3-3.6-1.5c-0.1,0-0.2-0.1-0.3-0.1c-0.7-0.4-1.5-0.7-2.4-0.9l-1.2-0.2l-1.2-0.5c-0.7-0.3-1.4-0.5-2.2-0.6
				l-0.6-0.1h-0.1l-2.6-0.3c-0.2,0-0.4,0-0.6-0.1l-2.7-0.2c-0.2,0-0.4,0-0.6,0h-3.1c-0.4,0-0.9,0-1.3,0.1l-4.8,0.7
				c-0.2,0-0.3,0-0.5,0.1l-2.7,0.5c-0.5,0.1-1,0.2-1.5,0.4l-2.5,0.9c-0.4,0.1-0.8,0.3-1.1,0.5l-0.4,0.1c-0.2,0.1-0.4,0.1-0.6,0.2
				c-1.3,0.3-2.4,0.9-3.4,1.7l-1.3,0.6c-0.2,0.1-0.5,0.2-0.7,0.4l-2.3,1.4c-0.4,0.3-0.8,0.6-1.2,0.9l-1.1,0.9
				c-0.2,0.2-0.4,0.3-0.6,0.5l-0.8,0.8c-0.5,0.3-1,0.7-1.4,1.1l-1.3,1.2c-0.6,0.6-1.2,1.3-1.6,2l0,0c-0.8,0.6-1.5,1.3-2.1,2.1
				l-1.5,2.1c-0.2,0.3-0.5,0.7-0.7,1.1c-0.3,0.5-0.6,1.1-0.9,1.6v0.1c-0.5,0.7-0.9,1.5-1.1,2.3c-0.1,0.2-0.2,0.4-0.3,0.6
				c-0.5,0.9-0.8,1.9-0.9,2.9c-0.1,0.2-0.1,0.4-0.1,0.5l-0.6,2.7c0,0.1,0,0.1,0,0.2l-0.3,1.5c-0.3,0.8-0.5,1.6-0.5,2.4l-0.2,2
				c0,0.4,0,0.9,0,1.3l0.3,5.5c0,0.1,0,0.3,0,0.4l0.3,3c0.1,1,0.4,2,0.8,2.8l-2,0.1c-1.2,0-2.4,0.3-3.5,0.8l-2.2,0.6
				c-0.9,0.2-1.8,0.6-2.5,1.1l-1.9,1.2c-0.3,0.2-0.6,0.4-0.9,0.7l-2,1.7c-0.4,0.3-0.8,0.7-1.1,1.1l-1.8,2.1
				c-0.6,0.7-1.1,1.6-1.5,2.5c-0.7,1.2-1.2,2.5-1.3,3.9l-0.2,0.5c-0.6,1.3-1,2.6-1,4.1v1.8c0,0.7,0.1,1.5,0.3,2.2l0.7,2.7
				c0.1,0.4,0.2,0.8,0.4,1.1l0.9,2.4c0.4,0.9,0.9,1.7,1.5,2.5l0.4,0.5c0.1,0.2,0.3,0.3,0.4,0.5l1.9,2c0.1,0.1,0.2,0.2,0.3,0.3
				l1.9,1.8c0.9,0.8,1.9,1.5,3.1,1.9c0.4,0.2,0.8,0.4,1.2,0.6c0.7,0.3,1.4,0.6,2.1,0.8l0.3,0.1c1,0.5,2.1,0.7,3.2,0.8l4.1,0.3
				c0.2,0,0.4,0,0.6,0h2.6c0.8,0,1.5-0.1,2.3-0.3l2-0.5l0.8-0.1c0.5-0.1,1-0.2,1.4-0.3l1.8-0.5c0.2-0.1,0.5-0.2,0.7-0.2l2.5-0.9
				c0.5-0.2,1-0.4,1.4-0.7l0.4-0.2c0.6,0.4,1.2,0.7,1.9,1c0.3,0.2,0.7,0.4,1,0.5l1,0.4c1,0.8,2.3,1.3,3.6,1.6c0.3,0.1,0.6,0.3,1,0.4
				l2,0.6c0.2,0,0.3,0.1,0.5,0.1l2.2,0.5c1,0.2,2.1,0.3,3.2,0.2l0.8-0.1c0.7,0.2,1.4,0.3,2.1,0.3c0.3,0,0.6,0,1-0.1l1.6-0.2
				c0.1,0,0.3,0,0.4,0l2.3-0.3c0.7-0.1,1.4-0.3,2-0.6l2.1-0.8l2.3-0.6c0.4-0.1,0.8-0.3,1.2-0.4l2.1-0.9c0.4-0.2,0.8-0.4,1.1-0.6
				c0.4-0.2,0.8-0.5,1.2-0.8c0.3-0.2,0.6-0.4,0.9-0.6c0.2-0.2,0.5-0.3,0.7-0.5l1.1-0.8l2.1-1.5c0.4-0.3,0.8-0.6,1.2-1l2-2
				c0.1-0.1,0.3-0.3,0.4-0.4l0,0c0.2,0.3,0.4,0.7,0.7,1c0.4,0.6,0.8,1.1,1.3,1.6l1.3,1.3c0.6,0.6,1.3,1.2,2.1,1.6
				c0.1,0.1,0.1,0.1,0.2,0.2c0.7,0.5,1.5,1,2.3,1.3c0.5,0.3,1,0.5,1.6,0.6c0.8,0.3,1.6,0.6,2.5,0.7l1.4,0.2c0.7,0.1,1.4,0.1,2.1,0
				l2.5-0.3c0.5-0.1,1.1-0.2,1.6-0.3h0.2c0.7-0.1,1.3-0.2,1.9-0.4l1.4-0.4c0.8-0.2,1.5-0.6,2.2-1.1l0.7-0.3l0,0
				c0.5,0.4,1,0.7,1.6,0.9l1.1,0.5c0.5,0.2,1,0.4,1.5,0.5l1.3,0.3c0.4,0.1,0.8,0.2,1.2,0.2l2.7,0.3c1.3,0.2,2.6,0,3.8-0.3l0.6-0.1
				c-0.1,0.1-0.1,0.2-0.2,0.4l-0.8,2c-0.3,0.8-0.5,1.6-0.6,2.5l-0.1,0.8c-0.1,0.6-0.1,1.2,0,1.8l0.3,2.7c0.1,0.7,0.2,1.4,0.4,2
				l0.3,1c0.2,0.7,0.5,1.3,0.9,1.9l1.4,2.2c0.4,0.6,0.8,1.2,1.3,1.7l1.1,1.1c0.6,0.6,1.3,1.1,2,1.5c1,0.8,2.2,1.4,3.4,1.7l3,0.8
				c0.6,0.2,1.3,0.3,2,0.3l2.9,0.2c0.2,0,0.4,0,0.5,0c0.4,0,0.8,0,1.2-0.1l2.5-0.3c0.8-0.1,1.6-0.3,2.4-0.7l1.2-0.5
				c0.2-0.1,0.3-0.1,0.5-0.2l2.4-1.2c0.3-0.1,0.5-0.3,0.8-0.4c0.7-0.3,1.4-0.8,2-1.3c0.5-0.3,0.9-0.7,1.3-1.1l0.8-0.8
				c0.3-0.3,0.6-0.6,0.8-0.9l3.1-4.1c0.7-0.7,1.3-1.5,1.7-2.4c0.4-0.5,0.7-1.1,1-1.7c0.4-0.6,0.7-1.1,0.9-1.8c0.4-0.8,0.8-1.6,1-2.4
				l0.4-0.8c0-0.1,0.1-0.2,0.1-0.3l0.6-1.5c0.3-0.4,0.5-0.9,0.7-1.4c0.2-0.1,0.4-0.2,0.6-0.3l2.4-1.3c0.1-0.1,0.2-0.1,0.3-0.2l1.6-1
				c0.6-0.2,1.2-0.5,1.8-0.9l2.3-1.5c0.5-0.3,1-0.7,1.4-1.2c0.3-0.1,0.5-0.3,0.7-0.5l2.1-1.5c0.4-0.3,0.8-0.6,1.1-0.9l1.9-1.9
				l1.9-1.8c0.2-0.2,0.4-0.4,0.6-0.6l1.8-2c0.1-0.2,0.3-0.3,0.4-0.5l1.1-1.4l0.2-0.2c0.5-0.4,0.9-0.9,1.3-1.5
				c0.3-0.3,0.5-0.6,0.8-0.9c0.4-0.5,0.7-1,1-1.5c0.5-0.6,0.9-1.3,1.2-2.1c0.3-0.4,0.6-0.8,0.8-1.2l0.8-1.5c0.7-1.2,1-2.5,1.1-3.8
				l0.1-1.4C500.1,422.4,499.5,420.5,498.4,418.8z M367.5,428l-0.3,0.3c-0.2,0.2-0.4,0.4-0.6,0.6l-1.5,1.5l-0.2,0.1
				c-0.4,0.2-0.8,0.4-1.2,0.6l-0.7,0.4l-1.2,0.4c-0.1,0-0.1,0-0.2,0.1l0.2-0.6l1.9-4.4c0-0.1,0.1-0.2,0.1-0.2l1-2.5
				c0-0.1,0.1-0.1,0.1-0.2l1-2.6c0.1-0.1,0.1-0.3,0.1-0.4l0.3-1c0.3-0.6,0.6-1.2,0.8-1.8c0.1-0.3,0.3-0.5,0.4-0.8l0.2-0.4
				c0.7-1,1.1-2.1,1.3-3.3c0-0.1,0.1-0.2,0.1-0.3l0.8-2.1c0.1-0.1,0.1-0.2,0.2-0.3c0.2-0.3,0.4-0.7,0.5-1.1l0.1-0.2
				c0.6-0.9,1.1-2,1.3-3.1c0.1-0.4,0.2-0.8,0.3-1.2l0.3-0.7l0.9-1.3c0.2-0.3,0.4-0.6,0.5-0.9l1.8-1.9v1.3c0,0.3,0,0.6,0.1,0.8
				l0.2,1.9l-0.1,1.5l-0.6,5.1c0,0.1,0,0.2,0,0.3l-0.1,1c-0.1,0.3-0.3,0.7-0.4,1c-0.1,0.2-0.1,0.4-0.2,0.5l-0.4,1.4
				c-0.1,0.4-0.2,0.8-0.3,1.2l-0.2,0.3c-0.4,0.6-0.7,1.3-0.9,2l-0.1,0.3l-0.1,0.1c-0.3,0.4-0.5,0.9-0.7,1.3c-0.4,0.6-0.7,1.3-0.9,2
				l-0.3,0.7l-2.2,2.8c-0.3,0.4-0.6,0.8-0.9,1.3C367.8,427.6,367.7,427.8,367.5,428z"/>
		</g>
		<g>
			<path class="st1" d="M393.8,410.8l0.4-2.4l-0.3-2.8l0.1-1.3l0.3-1.4l-0.2-1.3l-0.2-2.8l-0.3-2.7l-0.3-0.8l-0.4-2.6l-0.6-1.3
				l-0.3-1.3l-0.6-1.3l-0.3-1.2h-0.3v-0.4h-0.2l-0.1-0.4l-0.9-1.1l-0.7-1.3l-0.7-0.7l-1.8-2l-0.7-1.1l-1.2-0.8l-0.3-0.5l-0.5-0.2
				l-0.2-0.3l-0.7-0.3l-0.6-0.8l-0.6-0.2l-0.4-0.5l-1.9-0.8V376l-1.5-0.2l-0.4-0.4l-0.9-0.3v-0.2l-2-0.4l-2-0.8l-0.6-0.1l-2.6-0.3
				l-2.7-0.2h-3.1l-2.3,0.3l-2.6,0.3l-2.7,0.5l-2.5,0.9v0.2l-2,0.6l-0.3,0.3l-0.8,0.1l-0.4,0.4l-2.5,1.2l-2.3,1.4l-1.1,0.9l-2,2
				l-0.5,0.2l-1.3,1.2l-0.3,0.7l-0.4,0.4v0.3l-0.4,0.2l-0.8,1.1l-0.5,0.1l-1.5,2.1v0.3l-0.5,0.5l-0.6,1.4l-0.3,0.2l-0.3,1.4h-0.2
				v0.4h-0.3v0.3H334v0.6l-0.3,0.6l-0.6,2.7l-0.5,2.6l-0.2,0.3l-0.2,2l0.2,2.8l0.2,2.6l0.3,3l0.5,0.9l0.1,0.5l1,1.7v0.6l1.5,1.2
				l1.1-0.1l1-0.7h0.3l1-1l2.2-1.5l0.5-1.3l-0.4-2l-0.8-2.6l-0.3-2.6l0.2-2.7l0.8-2.5v-0.7l0.2-0.2l0.2-1l0.5-0.9l0.5-0.5l0.1-0.6
				l1.1-1.7l0.2-0.6l1.2-1.4l1.7-2l1.7-2l2.5-1.4l2.2-1.3l2.5-1.2l2.6-0.8h0.6l0.5-0.3l1.3-0.3l2.9-0.1l2.9,0.1l2.3,0.3l1.4,0.4
				l2.5,0.8l0.2,0.3l1,0.2v0.2h0.3v0.2h0.4v0.3l1.3,0.8l1.7,1.4l2,1.8l0.7,1l1.3,2.5l1.1,2.5l0.3,1.4l0.5,2.6l0.1,2.8l0.3,2.7
				l-0.2,2.6l-0.3,2.6l-0.3,2.7l-0.3,2.7l-0.5,0.9l-0.1,0.6l-0.2,0.2l-0.4,1.4l-0.1,1.4l-1.3,2.1l-0.4,1.4l-0.7,1.1l-0.2,0.7
				l-0.4,0.5l-0.1,0.3l-1,2.4l-1.6,2.1l-1.4,1.7l-0.1,0.6l-0.8,0.7l-0.1,0.5l-1.9,1.6l-2,2l-2.1,1.6l-0.6,0.1l-1.7,1l-2.4,0.7
				l-0.2,0.3l-1.3,0.3l-2.8,0.3l-2.5-0.3l-1.4-0.3l-2.6-0.9l-0.5-0.4h-0.3l-0.8-0.7l-2-1.3l-0.5-0.6l-0.3-0.7l0.2-1.2l0.7-1.2
				l0.5-0.3l0.8-2l0.5-0.5v-0.3l0.8-1.2l0.3-1.2l1.1-2.5l1.1-2.5l1-2.5l1-2.6l0.8-2.5l0.3-0.2l0.4-1.4l0.2-0.1l0.5-1.3l0.5-0.8
				l0.3-1.4l0.3-0.3l0.9-2.5v-0.3h0.2v-0.4h0.2v-0.4h0.3v-0.3l1-1.5l0.1-0.9h0.2l0.1-0.6l0.9-2.5l1.4-2.2l0.2-0.5l0.8-1.1l1.9-2
				l1.9-2l0.3-1l-0.3-1.4l-0.9-2.4l-0.8-0.6l-1.1-0.3l-2,0.4l-2.5,0.8v0.3h-0.3l-0.2,0.3l-0.6,0.2l-0.5,0.4l-2.2,1.7l-0.8,0.9
				l-0.3,0.6l-1.4,1.5l-0.7,1.2l-0.4,1.2l-0.6,0.9l-1.2,2.6l-0.5,2l-0.4,0.4l-0.2,0.6l-1.1,2.5l-0.3,0.9l-0.3,0.3l-1.4,4.3l-0.4,0.3
				v0.4l-0.8,1.7l-0.3,1.1l-0.3,0.3l-0.3,1l-1,2.5l-1,2.1l-0.3,1.4l-0.4,0.4v0.3l-0.3,0.5l-0.2,0.7l-0.3,0.3l-0.8,2.1l-0.3,0.3
				l-1.2,2.4l-0.9,0.9l-0.3,0.1l-0.2-0.1l-1.4-0.6l-1.1-0.8l-2.2-1.4l-0.6-0.1l-0.2-0.4l-2.3-1l-2-1.1H329l-0.2-0.2h-1l-2.6-0.3
				l-2.7,0.1l-0.8,0.4h-0.3l-2.5,0.7l-1.9,1.2l-2,1.7l-1.8,2.1L313,430l-0.5,0.8l-0.2,1.8l-0.9,1.9v1.8l0.7,2.7l0.9,2.4l0.4,0.5
				l1.9,2l1.9,1.8l0.8,0.2l0.5,0.4h0.3l0.4,0.3l2,0.4l0.2,0.3l4.1,0.3h2.6l2.6-0.7l1.4-0.2l1.8-0.5l2.5-0.9l1.3-0.8l0.2-0.3l0.5-0.1
				l0.3-0.3l2.3-1.4l1.2-0.5l0.7,0.4l0.6,0.1l0.7,0.8l0.6,0.3l0.6,0.8l0.5,0.1l0.2,0.3l0.5,0.1l0.2,0.4l1,0.3l0.5,0.5l2.2,1l0.4,0.4
				l1.4,0.3l0.2,0.3l2,0.6l2.2,0.5l2.7-0.3l1.3,0.2l0.1,0.3l1.6-0.2l2.3-0.3l2.5-1l2.7-0.8l2.1-0.9l0.2-0.3l0.4-0.1l0.3-0.4l0.5-0.1
				l0.2-0.4h0.4l1.3-1l2.3-1.6l2-2l1.9-2.1l0.2-0.5l0.6-0.3l0.1-0.5l0.8-0.6l0.1-0.6l0.4-0.3l0.2-0.6l1.3-1.4l0.3-0.6l0.3-0.2
				l0.2-0.5l0.3-0.2v-0.3h0.2v-0.4h0.3v-0.3l0.3-0.2V430l0.4-0.3l0.3-0.6l0.3-1l0.4-0.5l0.1-0.6l0.3-0.2l0.4-1.4l1.2-2.4l0.4-1.4
				l0.8-2.6l0.8-2.5l0.7-2.7l0.3-2.7L393.8,410.8z M361.1,395.1l0.4-0.6l0.3,0.3l-0.2,0.9l-0.2,0.2l-0.3-0.1l-0.3-0.2L361.1,395.1z
				 M359.5,399.8l0.5,0.2v0.2l-0.3,0.2l-0.3-0.2L359.5,399.8z M358.2,404.4h0.6l-0.1,0.9l-0.2,0.2h-0.3l-0.1-0.1l-0.1-0.7
				L358.2,404.4z M356.1,410.5l-0.5,0.4v0.2l-0.3-0.2v-0.6l0.5-0.3l0.3,0.3V410.5z M356.1,407.6h-0.3v-0.2l0.2-0.3l0.3,0.3
				L356.1,407.6z M356.8,407l0.1-0.3l0.3-0.2l0.3-0.6l0.4,0.2l-0.6,0.6l-0.1,0.5l-0.3,0.1L356.8,407L356.8,407z M355.3,404.4
				l0.9,0.2l0.4,0.3v0.4h-0.8l-0.4,0.3l-0.4,0.1v-0.2l0.4-0.8L355.3,404.4z M354.7,404l0.3,0.5h-0.3l-0.3-0.6L354.7,404z
				 M354.2,411.7l0.8-0.2l-0.2,0.5L354.2,411.7L354.2,411.7L354.2,411.7z M330.9,443.5l-0.3-0.2l-0.3-0.5l0.2-0.3h0.3l0.2,0.3
				l0.1,0.8L330.9,443.5L330.9,443.5z M334.2,435.8l-0.4,0.5l-1.2,0.9l-2.1,1.4h-0.6v0.2l-2.5,0.2l-2.7,0.2l-1.3-0.3l-1.4-0.8l0,0
				l-1.7-1.7V436l0.2-2.6l0.8-1.1l1.4-1l2.6-0.8l1.4,0.1l2.8,0.8l0.1,0.3h0.3v0.2h0.4l0.5,0.5l0.5,0.2l0.5,0.5l0.6,0.2l0.2,0.3
				l0.5,0.3l1.1,1.3l0.2,0.5L334.2,435.8z M337.5,437l-0.1-0.7l-0.2,0.1l-0.1,0.1l-0.2-0.6h1l0.3,0.8L338,437L337.5,437z
				 M339.7,441.1h-0.3l-0.3-0.5l-0.9,0.3v-0.2l0.3-0.4l0.7-0.1l0.6,0.3l0.1,0.3L339.7,441.1z M342.1,440.4l-0.4,0.4l-0.6-0.1
				l0.1-0.3l0.5-0.1v-0.9l-0.6,0.1l-0.2,0.5h-1.2l0.2-0.5l0.6-0.3l-0.5-0.6l-0.1-0.4l0.2-0.1h0.8l1.5,1.3L342.1,440.4z M341.9,437.2
				l-0.1,0.3l-0.5-0.1l-0.4-0.4v-0.8l0.1-0.1l0.8-0.2l-0.2,0.6L341.9,437.2z M345.2,436.8l-0.6-0.2l-0.6,0.5l-0.3,0.7l-0.5,0.3
				l-0.3-0.1l-0.1-0.3l0.2-1.4l-0.5-0.8l0.5-1.3l-0.3-0.3l-0.8-0.2l-0.3,0.2l0.2,1l-0.7-0.2l-0.3,0.3v0.4l-0.8-0.3l-0.3,0.4
				l-0.4,0.3l-0.7-0.4l0.4-0.4l-0.1-0.5l-0.6-0.4l-0.3-0.6l0.4-0.6l0.7-0.2l-0.2,0.5l-0.4,0.4l0.3,0.4l0.9,0.3l0.3-0.6l0.5-0.5v-0.3
				l-0.4-0.4l0.3-0.4l1,0.3l-0.1,0.3l-0.3,0.2l0.6,0.3l0.3-0.4l0.8-0.1l0.4-0.3v-0.2l-0.3-0.4l-0.5,0.6l-0.2-0.1l-0.4-1.1l0.3-0.2
				h0.3l0.3,0.2l0.3,0.6h0.6l0.3,0.4l0.4-0.3l-0.3-0.6l0.6-0.2l-0.6-1.2l1.5,0.4l-0.8,1.4l-0.1,0.8l-0.9,0.3l-0.4,0.4v0.3l0.3,0.4
				v0.7l0.7,1l0.1,0.4l0.7-0.2l0.3,0.2L345.2,436.8z M346.2,432.7l-0.5,0.3l-0.3-0.1l-0.1-0.7l0.1-0.1l0.7-0.1l0.3,0.2L346.2,432.7z
				 M348.4,427.7v-0.6h0.6v0.6H348.4z M348.8,430.1l-0.3-0.2v-0.3l0.2-0.1v-0.2l0.5,0.2l0.1,0.6H348.8z M351.9,420.2l-0.2-0.1
				l-0.3-0.3v-0.3l0.5,0.1l0.1,0.3L351.9,420.2z M352.5,407.9l0.2-0.3l0.3,0.3l-0.2,0.3l-0.4-0.2L352.5,407.9z M351.3,414.2l0.1-0.4
				l0.3-0.2h0.4v0.4l-0.2,0.3l-0.6,0.1L351.3,414.2L351.3,414.2z M351.3,415.5l0.3-0.2h0.8l0.3,0.6l-0.8,0.2l-0.5-0.4L351.3,415.5
				L351.3,415.5z M350.9,420.4l0.4,0.4v0.3h-0.2l-0.3-0.2l-0.3-0.6L350.9,420.4L350.9,420.4z M347.6,426.8l-0.3,1l-0.3-0.1v-1.4
				l0.6-0.3l0.3-0.7l0.9-0.4l-0.2-1.9l0.2-0.1l0.4-0.2l0.3-0.6l0.7,0.3l0.3,0.6l-0.2,0.7l0.4,0.4v0.3l-0.3,0.3h-0.9l-0.3,0.3
				l0.1,0.5l0.7,1.1h-0.4l-1.1-0.4l-0.3,0.1L347.6,426.8z M380.6,434.3l-0.5,0.1l-0.1-0.1l-0.2-0.3l-0.1-0.7l0.2-0.3h0.8l0.2,0.3
				L380.6,434.3z M381.3,429h-0.6v-0.3l0.3-0.8l0.4,0.2l0.1,0.6L381.3,429z M383.8,385.7l-1.7-1.4l0.2-0.3l0.6-0.1l0.1,0.2l0.9,0.8
				l0.3,0.6L383.8,385.7z M384.6,388.2l-0.2-0.1l-0.4-0.5l0.2-0.6l0.3,0.1l0.3,0.6L384.6,388.2z M385.1,385.9h-0.3v-0.4h0.3V385.9z
				 M388.2,392.6l-0.2,0.3h-0.2l-0.2-0.3l0.1-0.8l0.3-0.1L388.2,392.6z M386.5,390.2l0.1-0.4l0.8-0.5l0.5,0.3l-0.3,0.8l0.1,0.3
				l-0.6-0.3h-0.6V390.2z M387.2,394.2l-0.4,0.8l-0.3,0.1l-0.2-0.3l0.7-0.8l0.1-0.3h0.2l1.2-0.3h0.6l0.3,0.2v0.4l-0.2,0.3l-1,0.4
				l-0.5-0.3h-0.5V394.2z M388.3,417.6L388.3,417.6l-0.5-0.3V417h0.2l0.4,0.4L388.3,417.6z M389.5,397.2h-0.7l-0.3-0.2v-0.2l0.2-0.6
				h0.6l0.2,0.3L389.5,397.2L389.5,397.2z M390.6,398.4l-0.3,0.2l-0.3-0.1l-0.1-0.3h0.6L390.6,398.4L390.6,398.4z M391.5,410
				l-0.2-0.1v-0.5l0.3,0.1l0.1,0.3L391.5,410z"/>
			<path class="st1" d="M489.2,421.8l-1.2-0.6V421l-0.5-0.2h-1.2l-0.9,0.8l-0.8,1.3l-0.8,1v0.3l-0.6,0.8v0.3l-0.4,0.4l-0.1,0.3
				l-0.8,1l-1.6,2.1l-1.9,2.1l-1.8,2l-2.1,1.6l-0.9,1l-0.6,0.3l-0.4,0.6l-2.5,1.5l-0.4,0.5l-2.5,1.3l-0.6-0.3l-0.1-0.2l-0.2-0.1
				l-0.2-0.7l0.9-1.7l0.3-1.4l0.3-0.3l0.9-2.5l1-2.4l1-2.5l1-2.4l1.1-2.5l1-2.5l1-2.3l0.4-2.1l0.5-1.1l0.3-0.2l0.3-0.6l1-2.5
				l0.9-2.5l1.1-2.4l0.8-2l1.1-2.7V401l-0.6-0.8l-1.3-0.5l-1.6-0.3l-0.7,0.3l-1.6,0.1h-2.5l-1.2,0.4l-0.8,0.9l-0.6,2.4l-0.5,1.2
				l-2.2,4.9l-0.4,2l-0.7,1.4l-0.7,2.5l-0.5,1.1l-0.3,0.2l-0.5,1.4l-0.3,0.1l-0.5,1.3l-0.3,1.2l-0.8,1.2l-0.3,1.3l-0.7,0.8l-0.2,0.7
				l-0.5,0.8l-1.1,1.4l-0.2,0.7l-0.5,0.5l-0.3,0.8l-1.4,2.3l-1,0.9l-0.2,0.6l-1,1.2l-1.8,2.2l-0.7,0.3l-0.4,0.5l-2.3,0.7l-1.2-0.2
				L448,437l-0.4-1.5l0.1-1.4l0.8-2.7l0.8-2.6l0.4-0.4l0.9-2.1V426l0.8-2.6l0.7-1.2l0.9-2.6l0.7-1.1l0.8-2.5l0.8-1.8l1.1-2.5
				l0.1-0.9l0.4-0.4v-0.3l0.3-0.5l0.2-0.7l0.3-0.3V408l0.3-0.4l0.3-1.2l0.4-0.6l0.4-1.7l0.9-1.8v-0.8l-1.2-1l-0.9-0.3l-1.4-0.2
				l-3.5-0.1l-2.3,0.6l-1,1.3v0.3h-0.2l-0.4,1.4h-0.2v0.4l-0.3,0.1l-0.2,0.3l-0.6,2.1l-0.7,2.2l-0.4,0.6v0.3l-0.5,0.5l-0.1,0.5h-0.2
				l-0.3,0.9l-0.3,0.3l-0.8,2.4l-0.9,2.5l-2.2,4.9l-0.1,0.3l-0.5,0.7l-0.5,1.2l-1.4,2l-0.1,0.5L438,427l-0.2,0.6l-0.4,0.2l-0.2,0.6
				l-0.4,0.2l-0.2,0.6l-0.4,0.3l-1.4,1.8l-0.8,1.2l-0.8,0.9l-1.9,2l-0.6,0.3l-2.1,1.9l-2.5,1h-1l-0.2-0.4l-0.5-0.1l-0.3-0.9
				l-0.2-1.5l0.1-1.5l0.3-1.4l0.9-2.4l0.3-1.4l0.6-1.3l1-2.4l0.3-1.5l0.5-1.4l0.5-0.6l0.3-0.8l0.3-0.2l0.3-1.4l0.7-1.3v-0.3h0.2
				v-0.4h0.3V417h0.2v-0.4h0.2l0.7-2l0.7-2.7l0.1-0.1l1.1-1.9l1.1-2.5l0.6-1.8l0.7-1.4l0.3-1.3l-0.3-0.5l-0.9-0.8h-0.7l-0.3,0.2
				l-4.9,2.2l-2.1,1h-0.7l-0.5,0.3l-1.7-1V404l-0.4-0.3l-0.1-0.5l-0.3-0.6l-0.9-1l-2.1-1.7l-0.9-0.2v-0.2l-1.2-0.3l-2.7-0.3
				l-1.3,0.2l-2.5,0.6l-0.4,0.4H411l-0.2,0.3l-0.4,0.1l-0.2,0.3l-0.8,0.2l-0.3,0.3l-0.5,0.1l-0.3,0.5l-0.6,0.1l-0.2,0.4l-0.5,0.1
				l-0.6,0.8l-0.3,0.2l-1.9,1.9l-1,1.7l-0.5,0.4l-0.3,0.7l-0.6,0.4l-1.2,2.4l-0.6,0.8l-0.5,1.3l-0.5,0.5l-0.3,0.9l-0.8,1.3l-0.5,2
				l-0.9,2.4l-0.9,2.5l-0.6,2.4l-0.6,1.7l-0.6,2.5v1.3l-0.3,1.4l-0.3,2.6l0.1,1.5l0.3,2.6l0.2,0.2l0.2,1.2l0.2,0.2l0.3,1.1l0.5,0.4
				l0.1,0.4l1.3,1.3l1.2,0.6v0.2h0.3v0.3h0.4v0.2h0.3v0.2l1,0.2l0.2,0.3l1.4,0.2l2.5-0.3V445l2-0.2l1.4-0.4l0.3-0.3l1.8-0.8l2-1.8
				l2.1-1.8l0.6-0.2l1.2,0.8l0.1,0.6l1.1,1.4l2,2l1.1,0.5l1.3,0.3l2.7,0.3l0.3-0.2l2.5-0.3l0.8-0.4l0.6-0.1l1.3-0.5l1.1-0.7l0.5-0.1
				l0.2-0.3h0.4v-0.3h0.3v-0.2l0.5-0.1l0.3-0.3l2.2-1.9l2-1.9l1.7-1.6l0.1,0.8l-0.3,1l1,2.5h0.2l0.3,0.8l0.4,0.5l0.1,0.3l0.4,0.4
				h0.3l0.9,0.9h0.4l0.1,0.3l0.6,0.3l2.7,0.4h1.5l2.5-0.4l0.3-0.3l1-0.3l0.6-0.4l2.1-1l0.6,0.3l0.3,0.3v0.8l-1.8,2l-1.1,0.7l-2.5,1
				l-0.5,0.5L448,448l-2.5,1l-2.6,1.3l-2.3,1.2l-0.9,1l-0.6,0.2l-0.3,0.3l-2,1.8l-0.3,0.6l-0.9,1l-0.7,1.2l-0.8,2l-0.1,0.8l0.3,2.7
				l0.3,1l1.4,2.2l1.1,1.1l1.1,0.6l0.2,0.3l0.7,0.2l2.6,0.8l2.9,0.2l2.5-0.3l1.2-0.5l2.4-1.2l0.5-0.5l0.6-0.1l0.3-0.4l0.4-0.1
				l0.8-0.8l3.2-4.2l0.1-0.3l0.5-0.3l0.2-0.6l0.7-0.8l0.3-0.8l0.4-0.4l0.1-0.6l0.6-0.8v-0.3l0.8-2l0.9-2.4l0.5-0.8l0.6-2l1.9-1.8
				l0.8-0.2l0.6-0.4l0.8-0.3l2.4-1.3l2.3-1.4l0.7-0.3l2.3-1.5l0.7-0.8l1.2-0.7l2.1-1.5l2-2l2-1.9l1.8-2l1.6-2.1l0.8-0.8l0.3-0.5
				l0.5-0.4l0.1-0.3h0.2l0.3-0.8l0.5-0.5l0.3-1.2l1-1l0.8-1.5l0.1-1.4L489.2,421.8z M472.3,417.6H472v-0.2l0.5-0.3l0.1,0.2
				L472.3,417.6z M471.7,410.1l0.9-0.4l0.1-0.3h0.2l0.4,0.3v0.3l-0.9,0.5l-0.7,0.1V410.1z M471,415.2l0.4-0.4l0.6-0.2l0.2-0.3
				l0.3,0.2l-0.1,0.8l-0.9,0.4l-0.4-0.3v-0.2H471z M469.8,413.8l0.3-0.5l0.6,0.2v0.2l-0.4,0.4h-0.4v-0.3H469.8z M469.3,426.4h-0.2
				l-0.6-0.3v-0.3h0.6l0.2,0.2V426.4z M468.7,422.3l0.6,0.3l0.1,0.5l-0.4,0.4l-0.4,0.1l-0.3-0.5L468.7,422.3z M468.1,425l0.1-0.2
				l0.5-0.1l-0.3,0.3H468.1L468.1,425L468.1,425z M451.4,407.3h0.6v0.6h-0.6V407.3z M428.6,412.2l0.8-0.2l0.3,0.5l-0.6,0.2
				L428.6,412.2L428.6,412.2z M428,415.6l0.3-0.2v0.5H428V415.6z M426.5,411.5L426.5,411.5l0.4-0.2l0.1-0.2l0.2,0.1l0.3,0.6
				l-0.2,0.4l-0.8-0.3V411.5z M426.2,417.7l0.3-0.4l0.3,0.2v0.3l-0.3,0.3h-0.3l-0.2-0.2L426.2,417.7z M399.6,435.8l-1.1,0.2v-0.2
				l-0.5-0.3l-0.1-0.3h0.3l0.9-0.5l0.8-0.1l0.2,0.9L399.6,435.8z M400.7,435.1l0.2-0.3l0.6,0.2l-0.1,0.3l-0.7,0.1V435.1z
				 M400.8,437.2l-0.1,0.4l-0.3,0.1v-0.3l0.1-0.3l0.7-0.7l0.2,0.1l-0.1,0.3L400.8,437.2z M401.3,438.9v-0.2l0.6-0.2l0.2,0.5
				L401.3,438.9z M403.1,418.8h-0.5l0.2-0.3h0.4L403.1,418.8z M423.2,422v0.8h-0.3l-0.3-0.1l-0.1-0.7H423.2z M414.8,404.3l0.4,0.2
				v0.3H415l-0.3-0.2L414.8,404.3z M418.4,439.8l-0.4,0.5l-0.6,0.3l-0.2-0.3l0.3-0.2l0.1-0.2l0.3-1.2l0.6,0.2L418.4,439.8z
				 M416.6,435.1v-0.2l0.4-0.5l0.7-0.1l0.3,0.2l-0.7,0.8L416.6,435.1z M418.8,432.8l-0.3,0.2l-0.3-0.1l-0.1-0.7l0.2-0.1l0.5-0.1
				l0.3,0.2L418.8,432.8z M418.6,422.3l-0.3,0.2v0.3l-0.3,0.5v0.3l-0.5,1.2l-0.4,0.5l-0.8,2.5l-1,2.4l-1.4,1.9l-2,1.9v0.2l-0.3,0.1
				l-1,1.1h-0.3l-0.3,0.4h-0.4l-0.2,0.3l-1.8,0.6l-1.5,0.1l-1.1-0.4l-0.9-1l-0.5-1l-0.1-1.7l0.3-2.6l0.6-2.5l0.8-1.9l0.3-1.4
				l0.7-2.5l0.7-1.2l0.3-0.9l0.7-1l0.2-1l0.3-0.1v-0.4h0.3l0.3-0.8l1.5-2.2l1.5-2.4l1.8-2l0.6-0.2l0.5-0.8h0.4v-0.2h0.3v-0.2h0.4
				l0.1-0.1l1.3-0.4h0.9l1.4,0.3l1.1,0.7l0.4,0.6l0.2,0.6l0.4,0.4l0.1,0.9l0.2,0.3l-0.2,2.4l-0.5,1.2l-1,2.6l-0.3,0.5l-0.4,1.2
				L418.6,422.3z M420.2,438l-0.7,0.3V438l0.4-0.7l0.3,0.3L420.2,438z M420,431.2l-0.3,0.1l-0.3-0.2V431l0.5-0.6l-0.1-0.2l0.2-0.2
				h0.3L420,431.2z M421.2,439.2l-0.6-0.3l-0.1-0.5l0.2-0.3h0.2l0.4,0.4l0.2,0.7L421.2,439.2L421.2,439.2z M422,435.2l-0.3-0.3
				l0.2-0.6l0.3-0.1l0.1,0.9L422,435.2L422,435.2z M422.9,433.7l-0.7,0.2v-0.2l0.2-0.3l0.6-0.3L422.9,433.7z M423.9,426.7l-0.8-0.2
				l-0.5-0.3h-1.1l-0.8-0.6l0.1-0.2l0.2-0.2l1.1,0.5l0.3-0.1l0.3-0.3l0.3,0.2l0.3,0.5l0.8,0.3v0.4H423.9z M423.8,424.3h-0.4v-0.2
				l0.3-0.4h0.3L423.8,424.3z M424.9,418.3l-0.2-0.2l0.2-0.4l0.2,0.3L424.9,418.3z M425.9,414.7h-0.6v-0.4l-0.1-0.1L425,414l0.2-0.3
				l0.3,0.1L425.9,414.7z M424.1,411.1l0.8-0.8h0.3l-0.6,1l-0.3,0.2l-0.2-0.1L424.1,411.1L424.1,411.1z M442,437.7h-0.3v-0.3h0.3
				V437.7z M445.6,429.8l-0.2-0.1v-0.4l0.3,0.1l0.1,0.3L445.6,429.8z M447.6,420.2l0.5,0.1l0.1,0.3h-0.4v-0.2L447.6,420.2z
				 M448.7,418.5v0.3l-0.4,0.4l-0.8-0.3h-0.2l-0.3-0.3h1.7V418.5z M447,423.1h0.9v0.3l-0.9,0.1V423.1z M447.1,428.9l-0.2-0.1
				l-0.2-0.4l0.2-0.3l0.3,0.2l0.1,0.3L447.1,428.9z M449.3,455.4l-1,1.8l-0.4,0.4l-0.3,0.7l-0.8,1.2l-1.9,2L444,462l-1.3,0.5h-1.5
				l-0.9-0.6l-0.4-0.7l-0.2-1l1.2-2.1l0.5-0.4l0.4-0.7l0.6-0.3l0.2-0.3l1.9-1.1l2.6-1.2l1.2-0.4l0.2-0.1l0.3-0.1l0.1,0.2l0.6,0.3
				l0.3,0.4L449.3,455.4z M465.1,426.1l0.4,0.1l0.5,0.3l-0.1,0.2l-0.3,0.3l-0.4-0.2l-0.2-0.3L465.1,426.1z M464.3,426.6l0.3,0.1
				l0.1,0.3l-0.2,0.3l-0.2-0.1L464.3,426.6L464.3,426.6z M463.5,422.5l0.6,0.3l-0.1,0.1l-0.4,0.1l-0.2-0.3L463.5,422.5z M459,439.4
				l-0.2,0.3h-0.2l-0.3-0.2l-0.5-0.8l0.8-0.2v0.4L459,439.4z M459.4,444.2l0.3,0.2v0.3l-0.4,0.4l-0.6-0.1l-0.1-0.7l0.2-0.1
				L459.4,444.2z M457.3,441.8l0.3-0.4h0.3l-0.2,0.6h-0.4L457.3,441.8L457.3,441.8z M456.7,436l0.5,0.2v0.2l-0.3,0.2l-0.3-0.2
				L456.7,436z M454.9,440.8l0.4-0.3l0.3,0.2l0.1,0.4h-0.8V440.8z M453.9,448.9h0.8l-0.1,0.8l0.3,0.2l-0.1,0.1l-0.3,0.1l-0.3-0.2
				l-0.3-0.5V448.9z M453.3,451.4h0.3v0.3h-0.3V451.4z M452.3,454.6v-0.2l0.1-0.2l0.6-0.3l0.4-0.4l-0.1-0.3l0.3,0.1l-0.3,1.4
				L452.3,454.6z M453.7,462.3l-0.5-0.1l-0.1-0.3L453.7,462.3L453.7,462.3z M454.1,458.6l-0.6,0.3v-0.3l-0.2-0.6l0.2-0.3h0.2
				l0.4,0.5V458.6z M454.1,451.2v-0.6l0.3-0.4l1,0.5l0.2,0.3l-0.1,0.3l-1.2,0.1L454.1,451.2z M456.6,454.9l-0.4,0.2l-0.3-0.2
				l0.1-0.3l0.4-0.2l0.3,0.2v0.3H456.6z M456.5,452.7l-0.4,0.3l-0.6-0.1l-0.3-0.3l0.1-0.2l0.7-0.6l0.6,0.2L456.5,452.7z
				 M456.8,451.7l-0.4-0.2l0.2-0.3l0.4,0.2L456.8,451.7z M460.3,448.6l-1.2,0.5v0.4l-0.3,0.5v0.4h-0.2l-0.3-0.5l-0.3-0.2l-0.4,0.1
				v-1.4l-0.7,0.5l-0.3,0.6l-0.5,0.3l-0.4,0.1l-0.2-0.3l0.3-1l-0.1-0.4l0.5,0.1l0.1,0.7l0.6-0.2v-0.4l-0.5-0.7l-0.1-0.7l0.3-0.2
				l1.4,0.2l0.2-0.1l0.8-0.3l0.3,0.1l0.1,1l-0.9,0.3l0.1,0.3l0.2,0.1l1-0.3l0.3-0.4l0.3,0.2L460.3,448.6z M460.9,446.2h-0.4l0.6-0.8
				l-0.1-0.6l0.4-0.4l-0.1-0.2l0.1-0.3l0.3,0.2v1.4L460.9,446.2z M462,447h-0.4v-0.4h0.4V447z M463,444.2l-0.7,0.3v-1.7l-0.8,0.1
				l-1,0.7h-0.3l-0.6-0.3l0.3-0.8l-0.1-0.2l-0.8-0.8l-0.1-0.4l1.5,0.5l0.4,0.4l1.5-0.8l0.4,0.1v0.4l-0.4,0.5l0.1,0.2l1.2,0.4
				l0.1,0.3L463,444.2z M463.5,441.9l-0.4-0.3l0.2-0.7l-0.3-0.3l-0.1-0.9l-0.2-0.3l-2.1,1.1h-0.4l-0.3-0.3l0.2-1.1l-0.3-0.5
				l-0.6-0.3l-1-0.8v-0.4l0.2-0.2l0.4,0.1l0.2,0.3l0.6,0.3l0.5-0.8l0.3-0.1l0.6,0.2l0.2-0.2l-0.3-0.8l0.2-0.1l0.4-1.2h0.8l0.3,0.8
				l-0.2,0.6l-0.6,0.2l-0.9,1.5v0.4l0.6-0.3l0.3-0.6l0.6-0.4l0.3,0.1l0.1,0.7l0.8,0.4l0.4,0.5l-0.1,1.1l0.2,1.4L463.5,441.9z
				 M463.7,435.2l0.6,0.2v0.3l0.2,0.1l-0.2,0.8L464,437h-0.4v-0.8l-0.4-0.3l-0.2-1.4l-0.4-0.6h-0.3l-0.2-0.3h-0.4l-0.7,0.3l-0.4-0.3
				l-1,0.8l-0.3-0.2l-0.1-0.3l0.3-1.3h0.4l0.6,0.6l0.3-0.9l0.2-0.1l2-1.3l0.1,0.2l-0.5,0.8l0.8,0.2l0.8,1.3l0.4,1.3l-0.3,0.2h-0.7
				L463.7,435.2z M465.1,428.9l-0.2,0.2l0.2,1.2l-0.5-0.3l-0.2-0.8l-1.1-1.2l0.3-0.3h0.6l0.8,0.7l0.2-0.1h0.7l1.3,0.5l-0.4,1.4
				l-0.9-0.4l-0.1-0.4L465.1,428.9z M465.7,432.9l-0.5-0.8v-0.2l0.2-0.6h0.2l0.4,0.4l0.2,1.4L465.7,432.9z"/>
		</g>
	</g>
</g>
</svg>
