<?xml version="1.0" encoding="utf-8"?>
<!-- Generator: Adobe Illustrator 26.2.1, SVG Export Plug-In . SVG Version: 6.00 Build 0)  -->
<svg version="1.1" id="Capa_1" xmlns="http://www.w3.org/2000/svg" xmlns:xlink="http://www.w3.org/1999/xlink" x="0px" y="0px"
	 viewBox="0 0 518 284" style="enable-background:new 0 0 518 284;" xml:space="preserve">
<style type="text/css">
	.st0{fill:#1D4200;}
	.st1{fill:#FFF7D4;}
</style>
<g>
	<polygon class="st0" points="16.3,238.7 100.7,146.9 131.8,157.3 182.2,83.2 244.4,132.1 282.9,71.4 302.1,86.2 348,18 425,149.9 
		450.2,128.4 499.1,238.7 	"/>
</g>
<g>
	<polygon class="st1" points="443.9,156.2 379.7,210.9 370.3,164.6 353.4,155 364,133.7 328.8,128.4 355.1,90.1 347,50.1 
		286.5,139.9 287.3,96.3 217.6,206.1 208.8,178.7 208.8,178.7 175.4,164.6 195,135.9 186,107.9 120.6,204 105.8,166.6 55.1,221.7 
		472.9,221.7 	"/>
</g>
<g>
</g>
<g>
</g>
<g>
</g>
<g>
</g>
<g>
</g>
<g>
</g>
<g>
</g>
<g>
</g>
<g>
</g>
<g>
</g>
<g>
</g>
<g>
</g>
<g>
</g>
<g>
</g>
<g>
</g>
</svg>
