<svg xmlns="http://www.w3.org/2000/svg" viewBox="0 0 231.31 105.92"><defs><style>.cls-1{fill:#f4f6f8;}.cls-2{fill:#00a662;}.cls-3{fill:#ec5025;}.cls-4{fill:#fee000;}.cls-5{fill:#ed1b35;}.cls-6{fill:#32c5f0;}.cls-7{fill:#e2e41a;}</style></defs><g id="Layer_2" data-name="Layer 2"><g id="Layer_1-2" data-name="Layer 1"><path class="cls-1" d="M.47,46A52.91,52.91,0,0,0,30.06,100.7a56.86,56.86,0,0,0,6.17,2.51,53.58,53.58,0,0,0,32.72.23A52.88,52.88,0,0,0,99.17,78.81L95,76.46A47.85,47.85,0,0,1,78.47,93.8a48.11,48.11,0,0,1-34.86,6.38,47.35,47.35,0,0,1-11.47-3.82A48.09,48.09,0,0,1,5.24,46.59a48.16,48.16,0,0,1,2-8.83c.33-1,.68-1.91,1.06-2.84a48.44,48.44,0,0,1,5.87-10.54,47.2,47.2,0,0,1,8.33-8.72A48.2,48.2,0,0,1,79,12.49a47.55,47.55,0,0,1,9.26,7.77,48.34,48.34,0,0,1,7,9.82l4.24-2.29A52.94,52.94,0,0,0,3.88,33.11c-.41,1-.81,2.07-1.16,3.13A53.67,53.67,0,0,0,.47,46Z"/><path class="cls-2" d="M5.41,60.18a48,48,0,0,0,9.4,22,49.3,49.3,0,0,0,8.51,8.57l3-3.8A43.17,43.17,0,0,1,10.16,59.45a44.81,44.81,0,0,1-.49-8.15c0-.92.11-1.82.19-2.72a43.31,43.31,0,0,1,14.6-28.36,43.37,43.37,0,0,1,40.76-9l1.36-4.62a48.52,48.52,0,0,0-11.9-1.92,49.08,49.08,0,0,0-12,1.07A48,48,0,0,0,31.28,9.85,48,48,0,0,0,5.08,48.1c-.09,1-.18,2-.21,3A48.34,48.34,0,0,0,5.41,60.18Z"/><path class="cls-3" d="M10.16,59.45A43.46,43.46,0,0,0,35.61,92.54a43.84,43.84,0,0,0,15.84,3.6A44.64,44.64,0,0,0,56.89,96,43,43,0,0,0,67.5,93.66L65.88,89.1a38.23,38.23,0,0,1-9.42,2.07,40.87,40.87,0,0,1-4.84.14,41.89,41.89,0,0,1-4.81-.49,38.07,38.07,0,0,1-17.54-7.66,38.73,38.73,0,0,1-6.81-6.85,38.47,38.47,0,0,1-7.52-17.6,39.36,39.36,0,0,1-.44-7.24c0-.81.1-1.62.17-2.42a38.44,38.44,0,0,1,13-25.19,38.23,38.23,0,0,1,8-5.4,37.78,37.78,0,0,1,9.1-3.24l-1-4.73a43.14,43.14,0,0,0-19.24,9.73A43.27,43.27,0,0,0,9.86,48.58c-.08.9-.16,1.8-.19,2.72A44.81,44.81,0,0,0,10.16,59.45Z"/><path class="cls-4" d="M14.94,58.71a38.47,38.47,0,0,0,7.52,17.6,38.79,38.79,0,0,0,15.09,11.8,38.21,38.21,0,0,0,9.26,2.71l.77-4.74a34,34,0,0,1-8.11-2.38A33.69,33.69,0,0,1,26.28,73.38a33.65,33.65,0,0,1-7-21.74c0-.71.07-1.42.14-2.11a33.68,33.68,0,0,1,5.73-15.74,34.4,34.4,0,0,1,5.61-6.31,33.49,33.49,0,0,1,15-7.56,33.75,33.75,0,0,1,8.4-.76,34.13,34.13,0,0,1,8.33,1.35,33.14,33.14,0,0,1,7.75,3.39,33.59,33.59,0,0,1,6.64,5.2l3.42-3.38a38.58,38.58,0,0,0-35.58-10.5,37.78,37.78,0,0,0-9.1,3.24,38.23,38.23,0,0,0-8,5.4,38.34,38.34,0,0,0-13,25.19c-.07.8-.13,1.61-.17,2.42A39.36,39.36,0,0,0,14.94,58.71Z"/><path class="cls-5" d="M19.69,58a33.69,33.69,0,0,0,6.59,15.4,33.56,33.56,0,0,0,21.3,12.7,32.45,32.45,0,0,0,4.21.41A31.43,31.43,0,0,0,56,86.38,33.62,33.62,0,0,0,78.16,75.21L74.57,72a28.9,28.9,0,0,1-5.46,4.77,28.76,28.76,0,0,1-13.52,4.81,29.18,29.18,0,0,1-3.63.1,28.48,28.48,0,0,1-3.61-.36,28.89,28.89,0,0,1-7-2,28.8,28.8,0,0,1-15-15.09,28.86,28.86,0,0,1-2.31-12.39c0-.61.07-1.21.12-1.81a29.37,29.37,0,0,1,1.6-7.06,28.78,28.78,0,0,1,3.32-6.43A29.17,29.17,0,0,1,34,31.1,28.83,28.83,0,0,1,54,24a29.43,29.43,0,0,1,7.14,1.15A28.6,28.6,0,0,1,67.78,28a29,29,0,0,1,10.11,10.2L82,35.8a33.93,33.93,0,0,0-5.15-6.7,33.59,33.59,0,0,0-6.64-5.2,33.14,33.14,0,0,0-7.75-3.39,34.13,34.13,0,0,0-8.33-1.35,33.75,33.75,0,0,0-8.4.76,33.49,33.49,0,0,0-15,7.56,34.4,34.4,0,0,0-5.61,6.31,33.68,33.68,0,0,0-5.73,15.74c-.07.69-.12,1.4-.14,2.11A33.26,33.26,0,0,0,19.69,58Z"/><path class="cls-6" d="M24.44,57.25a28.74,28.74,0,0,0,2,7,28.93,28.93,0,0,0,15,15.09,28.89,28.89,0,0,0,7,2,28.48,28.48,0,0,0,3.61.36,29.18,29.18,0,0,0,3.63-.1l-.43-4.79a23.49,23.49,0,0,1-3,.09,24.74,24.74,0,0,1-3-.3,24,24,0,0,1-11-4.79,24.36,24.36,0,0,1-4.26-4.29,24.12,24.12,0,0,1-4.7-11A24,24,0,0,1,28.93,52c0-.51.05-1,.1-1.51a23.88,23.88,0,0,1,8.1-15.76,24.68,24.68,0,0,1,5-3.38,23.62,23.62,0,0,1,5.69-2,24.38,24.38,0,0,1,6-.54L54,24A28.76,28.76,0,0,0,34,31.1a29.17,29.17,0,0,0-4.81,5.41,28.78,28.78,0,0,0-3.32,6.43A29.37,29.37,0,0,0,24.24,50c0,.6-.1,1.2-.12,1.81A28.83,28.83,0,0,0,24.44,57.25Z"/><path class="cls-7" d="M137.3,79.51a1,1,0,0,1,.29.73V98.42a1,1,0,0,1-.29.71.89.89,0,0,1-.7.3,1,1,0,0,1-.73-.3,1,1,0,0,1-.3-.71V83.78l-7.19,14.7a1,1,0,0,1-.89.48.94.94,0,0,1-.92-.61L119.4,84V98.42a1,1,0,0,1-.28.71,1,1,0,0,1-.73.3.91.91,0,0,1-.71-.3,1,1,0,0,1-.3-.71V80.24a1,1,0,0,1,1-1,1,1,0,0,1,.91.52l8.27,16.45,8.13-16.45a1,1,0,0,1,.9-.52A.94.94,0,0,1,137.3,79.51Z"/><path class="cls-7" d="M149.47,86.05a6,6,0,0,1,2.28,2.46,7.67,7.67,0,0,1,.82,3.6.87.87,0,0,1-.26.66.93.93,0,0,1-.67.25H141.19a5.1,5.1,0,0,0,1.65,3.44,5.17,5.17,0,0,0,3.62,1.32,5.69,5.69,0,0,0,1.88-.33,4.49,4.49,0,0,0,1.51-.81,1.15,1.15,0,0,1,.7-.26,1,1,0,0,1,.57.2,1,1,0,0,1,.33.71.77.77,0,0,1-.28.59A7,7,0,0,1,149,99.09a7.51,7.51,0,0,1-6.22-.45,6.41,6.41,0,0,1-2.56-2.55,7.54,7.54,0,0,1-.91-3.72,7.85,7.85,0,0,1,.87-3.74,6.24,6.24,0,0,1,2.4-2.56,6.72,6.72,0,0,1,3.5-.92A6.42,6.42,0,0,1,149.47,86.05Zm-6.66,2.1a5.37,5.37,0,0,0-1.58,3.21h9.48a5.13,5.13,0,0,0-1.45-3.21,4.37,4.37,0,0,0-3.19-1.21A4.58,4.58,0,0,0,142.81,88.15ZM145,82.84a1,1,0,0,1-.29-.72,1,1,0,0,1,.24-.67l2.92-2.92a1,1,0,0,1,1.42,0,1,1,0,0,1,.29.74.89.89,0,0,1-.29.68l-2.9,2.91a.86.86,0,0,1-.67.27A1,1,0,0,1,145,82.84Z"/><path class="cls-7" d="M163.77,98.58a.79.79,0,0,1-.27.61.89.89,0,0,1-.61.24,1.1,1.1,0,0,1-.51-.1A1.06,1.06,0,0,1,162,99l-4.24-5.4-4.4,5.56a.81.81,0,0,1-.7.31.9.9,0,0,1-.66-.26.88.88,0,0,1-.24-.62,1,1,0,0,1,.26-.7l4.48-5.58-4.25-5.38a1.05,1.05,0,0,1-.26-.71,1,1,0,0,1,.23-.64.88.88,0,0,1,.68-.26,1,1,0,0,1,.75.31L157.79,91l4.11-5.2a1.06,1.06,0,0,1,.86-.47.87.87,0,0,1,.91.88,1.2,1.2,0,0,1-.29.75l-4.29,5.33,4.4,5.64A1.12,1.12,0,0,1,163.77,98.58Z"/><path class="cls-7" d="M165.13,82.18a1.39,1.39,0,0,1-.4-1,1.33,1.33,0,0,1,.41-1,1.44,1.44,0,0,1,1-.39,1.41,1.41,0,0,1,1,.39,1.33,1.33,0,0,1,.4,1,1.39,1.39,0,0,1-.4,1,1.41,1.41,0,0,1-1,.41A1.33,1.33,0,0,1,165.13,82.18Zm.29,17a1,1,0,0,1-.28-.73V86.29a1,1,0,0,1,.28-.72,1,1,0,0,1,.73-.29.91.91,0,0,1,.71.29,1,1,0,0,1,.28.72V98.42a1,1,0,0,1-.28.73.93.93,0,0,1-.71.28A1,1,0,0,1,165.42,99.15Z"/><path class="cls-7" d="M172.43,98.62A6.89,6.89,0,0,1,169.91,96a7.39,7.39,0,0,1-.91-3.66,7.78,7.78,0,0,1,.87-3.71,6.52,6.52,0,0,1,2.44-2.58,6.65,6.65,0,0,1,3.49-.93,6.44,6.44,0,0,1,5.25,2.49.76.76,0,0,1,.21.54.88.88,0,0,1-.44.72.86.86,0,0,1-.49.16,1.07,1.07,0,0,1-.76-.39,5.26,5.26,0,0,0-1.7-1.28A5,5,0,0,0,175.8,87a4.66,4.66,0,0,0-2.53.69,4.45,4.45,0,0,0-1.73,1.93,6.32,6.32,0,0,0-.61,2.79,5.85,5.85,0,0,0,.65,2.76,4.92,4.92,0,0,0,1.81,1.92,5,5,0,0,0,2.67.7,4.85,4.85,0,0,0,3.33-1.11,1.08,1.08,0,0,1,.7-.28.86.86,0,0,1,.57.2.88.88,0,0,1,.36.7.73.73,0,0,1-.26.57,6.62,6.62,0,0,1-4.7,1.73A7.07,7.07,0,0,1,172.43,98.62Z"/><path class="cls-7" d="M185.46,98.63a6.85,6.85,0,0,1-2.58-2.57,7.88,7.88,0,0,1,0-7.39,6.76,6.76,0,0,1,2.58-2.59,7.38,7.38,0,0,1,3.69-.93,7.26,7.26,0,0,1,3.67.93,6.83,6.83,0,0,1,2.58,2.59,7.77,7.77,0,0,1,0,7.39,6.75,6.75,0,0,1-2.57,2.57,7.79,7.79,0,0,1-7.38,0Zm6.38-1.58a5,5,0,0,0,1.86-1.92,6,6,0,0,0,0-5.54,4.93,4.93,0,0,0-1.86-1.93,5.26,5.26,0,0,0-2.69-.7,5.33,5.33,0,0,0-2.68.7,5.08,5.08,0,0,0-1.89,1.93,6,6,0,0,0,0,5.54,5.12,5.12,0,0,0,1.89,1.92,5.23,5.23,0,0,0,2.68.7A5.16,5.16,0,0,0,191.84,97.05Z"/><path class="cls-1" d="M65.6,37.61a18.35,18.35,0,0,0-9.12-2.25H48.36a1.69,1.69,0,0,0-1.76,1.76V68.83a1.69,1.69,0,0,0,1.76,1.76h8.12a18.35,18.35,0,0,0,9.12-2.25,16,16,0,0,0,6.24-6.27A18.45,18.45,0,0,0,74.08,53a18.34,18.34,0,0,0-2.24-9.09A16,16,0,0,0,65.6,37.61ZM68.8,60.4a13.29,13.29,0,0,1-5,5.16,14.18,14.18,0,0,1-7.31,1.87H50.12V38.51h6.36a14.27,14.27,0,0,1,7.31,1.86,13,13,0,0,1,5,5.14,16.3,16.3,0,0,1,0,14.89Z"/><path class="cls-1" d="M94.2,47a13.18,13.18,0,0,0-12.77,0,11.94,11.94,0,0,0-4.5,4.53,12.7,12.7,0,0,0-1.65,6.41,12.83,12.83,0,0,0,1.6,6.38,12.19,12.19,0,0,0,16,4.92,11.13,11.13,0,0,0,4-3.41v2.71a1.65,1.65,0,0,0,.5,1.24,1.89,1.89,0,0,0,2.52,0,1.63,1.63,0,0,0,.5-1.22V57.93a12.6,12.6,0,0,0-1.65-6.41A11.89,11.89,0,0,0,94.2,47Zm1.53,15.74a8.66,8.66,0,0,1-3.27,3.36,8.91,8.91,0,0,1-4.64,1.22,9.07,9.07,0,0,1-4.67-1.22,8.73,8.73,0,0,1-3.3-3.36,10.28,10.28,0,0,1,0-9.6,9,9,0,0,1,3.3-3.39,9.09,9.09,0,0,1,4.67-1.24,8.88,8.88,0,0,1,7.91,4.63,10.2,10.2,0,0,1,0,9.6Z"/><path class="cls-1" d="M114.23,66.77H113a4.53,4.53,0,0,1-3.47-1.46,5.39,5.39,0,0,1-1.35-3.78v-12h5.09a1.52,1.52,0,0,0,1.16-.43,1.45,1.45,0,0,0,.42-1.06,1.49,1.49,0,0,0-.42-1.1,1.55,1.55,0,0,0-1.16-.43h-5.09v-7a1.69,1.69,0,0,0-1.75-1.76,1.65,1.65,0,0,0-1.25.49,1.8,1.8,0,0,0-.47,1.27v7h-2.94a1.56,1.56,0,0,0-1.15.43,1.5,1.5,0,0,0-.43,1.1,1.46,1.46,0,0,0,.43,1.06,1.52,1.52,0,0,0,1.15.43h2.94v12a9.28,9.28,0,0,0,1,4.45A8,8,0,0,0,113,70.24H114a2,2,0,0,0,1.36-.49,1.59,1.59,0,0,0,.54-1.22,1.78,1.78,0,0,0-.45-1.26A1.52,1.52,0,0,0,114.23,66.77Z"/><path class="cls-1" d="M135.35,47a13.16,13.16,0,0,0-12.76,0,11.92,11.92,0,0,0-4.52,4.53,13.43,13.43,0,0,0,0,12.79A12.19,12.19,0,0,0,134,69.23a11.13,11.13,0,0,0,4-3.41v2.71a1.65,1.65,0,0,0,.5,1.24,1.74,1.74,0,0,0,1.26.47,1.78,1.78,0,0,0,1.27-.49,1.7,1.7,0,0,0,.49-1.22V57.93a12.7,12.7,0,0,0-1.65-6.41A11.89,11.89,0,0,0,135.35,47Zm1.54,15.74a8.75,8.75,0,0,1-3.28,3.36A8.91,8.91,0,0,1,129,67.31a9,9,0,0,1-4.67-1.22,8.73,8.73,0,0,1-3.3-3.36,10.28,10.28,0,0,1,0-9.6,9,9,0,0,1,3.3-3.39A9.06,9.06,0,0,1,129,48.5a8.91,8.91,0,0,1,7.92,4.63,10.28,10.28,0,0,1,0,9.6Z"/><path class="cls-1" d="M149.09,65.69a2.66,2.66,0,0,0-2.62,2.66A2.6,2.6,0,0,0,149.09,71a2.59,2.59,0,0,0,1.85-.76,2.56,2.56,0,0,0,.76-1.85,2.62,2.62,0,0,0-.76-1.87A2.51,2.51,0,0,0,149.09,65.69Z"/><path class="cls-1" d="M181.44,36.77a2.49,2.49,0,0,0-.68-1.78,2.6,2.6,0,0,0-3.58,0,2.51,2.51,0,0,0-.72,1.8V48a11.73,11.73,0,0,0-2.92-2.08,12.43,12.43,0,0,0-5.71-1.32,12.64,12.64,0,0,0-6.58,1.76,12.49,12.49,0,0,0-4.65,4.78,13.63,13.63,0,0,0-1.7,6.76,13.44,13.44,0,0,0,1.75,6.77,12.83,12.83,0,0,0,4.78,4.81,13.93,13.93,0,0,0,13.52,0,12.72,12.72,0,0,0,4.79-4.81,13.5,13.5,0,0,0,1.75-6.77V47.28a2.59,2.59,0,0,0-.05-.51Zm-4.89,21.12a9,9,0,0,1-1.1,4.44,8.29,8.29,0,0,1-3,3.09,8.12,8.12,0,0,1-4.27,1.14,8.28,8.28,0,0,1-7.31-4.23,9.61,9.61,0,0,1,0-8.89,8.1,8.1,0,0,1,3-3.07,8.45,8.45,0,0,1,4.29-1.12,8,8,0,0,1,5.57,2.07,8.19,8.19,0,0,1,2.7,5.21,1.1,1.1,0,0,0,.07.41C176.55,57.17,176.55,57.47,176.55,57.89Z"/><path class="cls-5" d="M207.59,70.75a2.28,2.28,0,0,1-3.15-1.2l-7.71-17-8.1,17a2.14,2.14,0,0,1-2,1.41,2.51,2.51,0,0,1-1.1-.25,2.14,2.14,0,0,1-1.46-2,2.34,2.34,0,0,1,.26-1.14L194.21,47l-4.35-9.58a2.76,2.76,0,0,1-.23-1.11,2.11,2.11,0,0,1,1.44-2,2.51,2.51,0,0,1,1.16-.27,2.07,2.07,0,0,1,2,1.47l14.62,32.15a2.7,2.7,0,0,1,.24,1.1A2.08,2.08,0,0,1,207.59,70.75Z"/><path class="cls-1" d="M229.81,45a2.29,2.29,0,0,0-3.15,1.19l-7.71,17-8.09-17a2.13,2.13,0,0,0-2-1.41,2.56,2.56,0,0,0-1.11.24,2.14,2.14,0,0,0-1.46,2.05,2.44,2.44,0,0,0,.26,1.13l9.92,20.55-4.34,9.59a2.78,2.78,0,0,0-.24,1.11,2.11,2.11,0,0,0,1.44,2,2.5,2.5,0,0,0,1.16.26,2.07,2.07,0,0,0,2-1.48l14.63-32.13a2.74,2.74,0,0,0,.24-1.11A2.09,2.09,0,0,0,229.81,45Z"/></g></g></svg>